<svg width="13" height="13" viewBox="0 0 13 13" fill="none" xmlns="http://www.w3.org/2000/svg">
<g clip-path="url(#clip0_43_2131)">
<path d="M4.4561 11.2498C5.50741 12.2782 7.1865 12.2824 8.24294 11.2592L10.2339 9.41943C12.3906 7.29142 12.4139 3.81794 10.2858 1.66122C8.15782 -0.495501 4.68436 -0.518798 2.52764 1.60923C2.5102 1.62644 2.49286 1.64378 2.47565 1.66122C0.333395 3.8038 0.333676 7.27736 2.47626 9.41962C2.48069 9.42405 2.48514 9.42848 2.4896 9.43291L4.4561 11.2498ZM3.18084 2.36643C4.92989 0.609671 7.77189 0.603413 9.52865 2.35246C11.2854 4.10151 11.2917 6.94351 9.54262 8.70027L7.55568 10.5366C6.87703 11.1753 5.81723 11.1714 5.14333 10.5276L3.18084 8.71424C1.42795 6.96135 1.42793 4.11937 3.18079 2.36645C3.18082 2.36645 3.18084 2.36643 3.18084 2.36643ZM3.86111 5.54033C3.86111 5.2649 4.0844 5.04161 4.35984 5.04161H5.85602V3.54543C5.85602 3.26999 6.07931 3.0467 6.35475 3.0467C6.63018 3.0467 6.85347 3.26999 6.85347 3.54543V5.04161H8.34965C8.62509 5.04161 8.84838 5.2649 8.84838 5.54033C8.84838 5.81577 8.62509 6.03906 8.34965 6.03906H6.85347V7.53524C6.85347 7.81068 6.63018 8.03397 6.35475 8.03397C6.07931 8.03397 5.85602 7.81068 5.85602 7.53524V6.03906H4.35984C4.0844 6.03906 3.86111 5.81577 3.86111 5.54033Z" fill="#374957"/>
</g>
<defs>
<clipPath id="clip0_43_2131">
<rect width="12" height="12" fill="white" transform="translate(0.368652 0.0258789)"/>
</clipPath>
</defs>
</svg>
