<svg width="88" height="49" viewBox="0 0 88 49" fill="none" xmlns="http://www.w3.org/2000/svg">
<path d="M85.8973 38.4917C85.4646 38.4917 85.0922 38.4041 84.78 38.2288C84.4696 38.0517 84.2305 37.8016 84.0625 37.4785C83.8945 37.1535 83.8105 36.7692 83.8105 36.3256C83.8105 35.8929 83.8945 35.5131 84.0625 35.1863C84.2305 34.8595 84.4669 34.6049 84.7718 34.4223C85.0785 34.2397 85.4381 34.1484 85.8507 34.1484C86.1283 34.1484 86.3866 34.1932 86.6257 34.2826C86.8667 34.3703 87.0767 34.5026 87.2556 34.6797C87.4363 34.8568 87.5769 35.0795 87.6773 35.3479C87.7778 35.6145 87.828 35.9267 87.828 36.2845V36.6049H84.2761V35.8819H86.7298C86.7298 35.714 86.6933 35.5652 86.6203 35.4355C86.5472 35.3059 86.4459 35.2046 86.3163 35.1316C86.1885 35.0567 86.0397 35.0193 85.8699 35.0193C85.6928 35.0193 85.5358 35.0604 85.3989 35.1425C85.2638 35.2229 85.1579 35.3315 85.0812 35.4684C85.0045 35.6035 84.9653 35.7541 84.9635 35.9203V36.6076C84.9635 36.8158 85.0018 36.9956 85.0785 37.1471C85.157 37.2987 85.2674 37.4155 85.4098 37.4977C85.5522 37.5798 85.7211 37.6209 85.9165 37.6209C86.0461 37.6209 86.1648 37.6026 86.2725 37.5661C86.3802 37.5296 86.4724 37.4748 86.5491 37.4018C86.6257 37.3288 86.6842 37.2393 86.7243 37.1334L87.8033 37.2046C87.7485 37.4639 87.6363 37.6903 87.4665 37.8838C87.2985 38.0755 87.0813 38.2252 86.8147 38.3329C86.55 38.4388 86.2442 38.4917 85.8973 38.4917Z" fill="#91D2E1"/>
<path d="M81.0889 38.4777C80.7694 38.4777 80.48 38.3956 80.2208 38.2313C79.9634 38.0651 79.7589 37.8214 79.6074 37.5001C79.4577 37.1769 79.3828 36.7808 79.3828 36.3116C79.3828 35.8296 79.4604 35.4289 79.6156 35.1094C79.7708 34.788 79.9771 34.548 80.2345 34.3891C80.4937 34.2285 80.7776 34.1481 81.0862 34.1481C81.3217 34.1481 81.5179 34.1883 81.675 34.2686C81.8338 34.3471 81.9616 34.4457 82.0584 34.5644C82.1569 34.6812 82.2318 34.7963 82.2829 34.9094H82.3185V32.8008H83.4824V38.4093H82.3322V37.7356H82.2829C82.2281 37.8524 82.1505 37.9684 82.0501 38.0834C81.9515 38.1966 81.8228 38.2906 81.664 38.3655C81.507 38.4403 81.3153 38.4777 81.0889 38.4777ZM81.4586 37.5494C81.6467 37.5494 81.8055 37.4983 81.9351 37.396C82.0666 37.292 82.167 37.1468 82.2364 36.9606C82.3076 36.7744 82.3432 36.5562 82.3432 36.3061C82.3432 36.056 82.3085 35.8387 82.2391 35.6543C82.1697 35.4699 82.0693 35.3275 81.9379 35.2271C81.8064 35.1267 81.6467 35.0765 81.4586 35.0765C81.2669 35.0765 81.1053 35.1285 80.9739 35.2326C80.8424 35.3367 80.7429 35.4809 80.6754 35.6653C80.6078 35.8497 80.5741 36.0633 80.5741 36.3061C80.5741 36.5507 80.6078 36.7671 80.6754 36.9551C80.7448 37.1413 80.8443 37.2874 80.9739 37.3933C81.1053 37.4973 81.2669 37.5494 81.4586 37.5494Z" fill="#91D2E1"/>
<path d="M77.043 38.4092V34.2028H78.174V34.9368H78.2178C78.2945 34.6757 78.4232 34.4785 78.6039 34.3452C78.7847 34.2101 78.9928 34.1426 79.2283 34.1426C79.2867 34.1426 79.3497 34.1462 79.4173 34.1535C79.4848 34.1608 79.5442 34.1709 79.5953 34.1837V35.2188C79.5405 35.2024 79.4647 35.1878 79.368 35.175C79.2712 35.1622 79.1827 35.1558 79.1023 35.1558C78.9307 35.1558 78.7774 35.1933 78.6423 35.2681C78.509 35.3411 78.4031 35.4434 78.3246 35.5748C78.2479 35.7063 78.2096 35.8578 78.2096 36.0294V38.4092H77.043Z" fill="#91D2E1"/>
<path d="M74.8128 38.4917C74.3801 38.4917 74.0077 38.4041 73.6955 38.2288C73.3851 38.0517 73.146 37.8016 72.978 37.4785C72.8101 37.1535 72.7261 36.7692 72.7261 36.3256C72.7261 35.8929 72.8101 35.5131 72.978 35.1863C73.146 34.8595 73.3824 34.6049 73.6873 34.4223C73.994 34.2397 74.3537 34.1484 74.7663 34.1484C75.0438 34.1484 75.3021 34.1932 75.5413 34.2826C75.7823 34.3703 75.9922 34.5026 76.1711 34.6797C76.3519 34.8568 76.4925 35.0795 76.5929 35.3479C76.6933 35.6145 76.7435 35.9267 76.7435 36.2845V36.6049H73.1916V35.8819H75.6453C75.6453 35.714 75.6088 35.5652 75.5358 35.4355C75.4628 35.3059 75.3614 35.2046 75.2318 35.1316C75.104 35.0567 74.9552 35.0193 74.7854 35.0193C74.6084 35.0193 74.4513 35.0604 74.3144 35.1425C74.1793 35.2229 74.0734 35.3315 73.9967 35.4684C73.9201 35.6035 73.8808 35.7541 73.879 35.9203V36.6076C73.879 36.8158 73.9173 36.9956 73.994 37.1471C74.0725 37.2987 74.183 37.4155 74.3254 37.4977C74.4678 37.5798 74.6367 37.6209 74.832 37.6209C74.9616 37.6209 75.0803 37.6026 75.188 37.5661C75.2957 37.5296 75.3879 37.4748 75.4646 37.4018C75.5413 37.3288 75.5997 37.2393 75.6399 37.1334L76.7188 37.2046C76.6641 37.4639 76.5518 37.6903 76.382 37.8838C76.214 38.0755 75.9968 38.2252 75.7302 38.3329C75.4655 38.4388 75.1597 38.4917 74.8128 38.4917Z" fill="#91D2E1"/>
<path d="M69.0999 32.8008L70.4555 37.0619H70.5075L71.8659 32.8008H73.1803L71.2469 38.4093H69.7188L67.7827 32.8008H69.0999Z" fill="#91D2E1"/>
<path d="M63.5597 35.9775V38.4093H62.3931V32.8008H63.5268V34.945H63.5761C63.671 34.6968 63.8244 34.5023 64.0362 34.3617C64.248 34.2193 64.5136 34.1481 64.8331 34.1481C65.1252 34.1481 65.3799 34.212 65.5971 34.3398C65.8162 34.4658 65.986 34.6475 66.1065 34.8848C66.2288 35.1203 66.2891 35.4024 66.2872 35.731V38.4093H65.1206V35.9391C65.1225 35.6799 65.0567 35.4781 64.9235 35.3339C64.792 35.1897 64.6076 35.1176 64.3703 35.1176C64.2114 35.1176 64.0709 35.1513 63.9485 35.2189C63.8281 35.2864 63.7331 35.385 63.6637 35.5147C63.5962 35.6425 63.5615 35.7967 63.5597 35.9775Z" fill="#91D2E1"/>
<path d="M58.7051 38.4917C58.2797 38.4917 57.9118 38.4014 57.6015 38.2206C57.2929 38.0381 57.0547 37.7843 56.8867 37.4593C56.7187 37.1325 56.6348 36.7537 56.6348 36.3228C56.6348 35.8883 56.7187 35.5086 56.8867 35.1836C57.0547 34.8568 57.2929 34.603 57.6015 34.4223C57.9118 34.2397 58.2797 34.1484 58.7051 34.1484C59.1305 34.1484 59.4974 34.2397 59.806 34.4223C60.1163 34.603 60.3555 34.8568 60.5235 35.1836C60.6914 35.5086 60.7754 35.8883 60.7754 36.3228C60.7754 36.7537 60.6914 37.1325 60.5235 37.4593C60.3555 37.7843 60.1163 38.0381 59.806 38.2206C59.4974 38.4014 59.1305 38.4917 58.7051 38.4917ZM58.7106 37.588C58.9041 37.588 59.0657 37.5333 59.1953 37.4237C59.3249 37.3123 59.4226 37.1608 59.4883 36.9691C59.5559 36.7774 59.5896 36.5593 59.5896 36.3146C59.5896 36.07 59.5559 35.8518 59.4883 35.6601C59.4226 35.4684 59.3249 35.3169 59.1953 35.2055C59.0657 35.0941 58.9041 35.0385 58.7106 35.0385C58.5152 35.0385 58.3509 35.0941 58.2176 35.2055C58.0862 35.3169 57.9867 35.4684 57.9191 35.6601C57.8534 35.8518 57.8205 36.07 57.8205 36.3146C57.8205 36.5593 57.8534 36.7774 57.9191 36.9691C57.9867 37.1608 58.0862 37.3123 58.2176 37.4237C58.3509 37.5333 58.5152 37.588 58.7106 37.588Z" fill="#91D2E1"/>
<path d="M53.9928 38.4888C53.7245 38.4888 53.4853 38.4423 53.2753 38.3492C53.0654 38.2542 52.8993 38.1146 52.7769 37.9302C52.6564 37.744 52.5962 37.5121 52.5962 37.2346C52.5962 37.0009 52.6391 36.8046 52.7249 36.6458C52.8107 36.487 52.9276 36.3592 53.0754 36.2624C53.2233 36.1657 53.3913 36.0926 53.5793 36.0433C53.7692 35.994 53.9682 35.9594 54.1763 35.9393C54.421 35.9137 54.6181 35.89 54.7678 35.8681C54.9175 35.8443 55.0262 35.8096 55.0937 35.764C55.1613 35.7184 55.1951 35.6508 55.1951 35.5614V35.5449C55.1951 35.3715 55.1403 35.2373 55.0307 35.1424C54.923 35.0474 54.7697 35 54.5707 35C54.3607 35 54.1937 35.0465 54.0695 35.1396C53.9454 35.2309 53.8632 35.3459 53.823 35.4847L52.7441 35.397C52.7988 35.1414 52.9066 34.9205 53.0672 34.7343C53.2279 34.5463 53.4351 34.402 53.6889 34.3016C53.9445 34.1994 54.2402 34.1483 54.5761 34.1483C54.8098 34.1483 55.0335 34.1757 55.2471 34.2304C55.4625 34.2852 55.6533 34.3701 55.8194 34.4851C55.9874 34.6001 56.1198 34.748 56.2165 34.9288C56.3133 35.1077 56.3617 35.3222 56.3617 35.5723V38.4094H55.2553V37.8261H55.2224C55.1549 37.9576 55.0645 38.0735 54.9513 38.1739C54.8381 38.2725 54.7021 38.3501 54.5433 38.4067C54.3844 38.4614 54.201 38.4888 53.9928 38.4888ZM54.3269 37.6837C54.4986 37.6837 54.6501 37.6499 54.7815 37.5824C54.913 37.513 55.0161 37.4199 55.091 37.3031C55.1658 37.1862 55.2033 37.0538 55.2033 36.906V36.4596C55.1668 36.4833 55.1165 36.5052 55.0526 36.5253C54.9906 36.5436 54.9203 36.5609 54.8418 36.5773C54.7633 36.5919 54.6848 36.6056 54.6063 36.6184C54.5278 36.6294 54.4566 36.6394 54.3927 36.6485C54.2557 36.6686 54.1362 36.7006 54.0339 36.7444C53.9317 36.7882 53.8523 36.8475 53.7957 36.9224C53.7391 36.9954 53.7108 37.0867 53.7108 37.1963C53.7108 37.3551 53.7683 37.4765 53.8833 37.5605C54.0001 37.6426 54.148 37.6837 54.3269 37.6837ZM53.8367 33.6855L53.1877 33.6772C53.1877 33.3285 53.2735 33.0611 53.4451 32.8749C53.6186 32.6886 53.8294 32.5946 54.0777 32.5928C54.2055 32.5928 54.3151 32.6138 54.4064 32.6558C54.4995 32.6959 54.5825 32.7434 54.6556 32.7982C54.7304 32.853 54.8016 32.9013 54.8692 32.9433C54.9367 32.9835 55.0097 33.0036 55.0882 33.0036C55.1941 33.0017 55.2745 32.9625 55.3292 32.8858C55.3858 32.8073 55.4141 32.7051 55.4141 32.5791L56.0522 32.5983C56.0486 32.9433 55.9609 33.2099 55.7893 33.3979C55.6177 33.5841 55.4087 33.6782 55.1622 33.68C55.0253 33.68 54.9102 33.6599 54.8171 33.6197C54.7258 33.5777 54.6455 33.5303 54.5761 33.4773C54.5068 33.4226 54.4392 33.3742 54.3735 33.3322C54.3078 33.2902 54.2338 33.2692 54.1517 33.2692C54.0567 33.2692 53.9801 33.3066 53.9216 33.3815C53.865 33.4563 53.8367 33.5577 53.8367 33.6855Z" fill="#91D2E1"/>
<path d="M49.6256 35.9778V38.4096H48.459V34.2032H49.5708V34.9453H49.6201C49.7132 34.7007 49.8693 34.5072 50.0884 34.3648C50.3075 34.2206 50.5731 34.1484 50.8853 34.1484C51.1774 34.1484 51.4321 34.2123 51.6494 34.3401C51.8666 34.4679 52.0355 34.6505 52.156 34.8878C52.2765 35.1234 52.3367 35.4045 52.3367 35.7313V38.4096H51.1701V35.9394C51.1719 35.682 51.1062 35.4812 50.9729 35.337C50.8397 35.1909 50.6562 35.1179 50.4225 35.1179C50.2655 35.1179 50.1267 35.1516 50.0063 35.2192C49.8876 35.2868 49.7945 35.3853 49.7269 35.515C49.6612 35.6428 49.6274 35.797 49.6256 35.9778Z" fill="#91D2E1"/>
<path d="M46.6647 32.8008V38.4093H45.498V32.8008H46.6647Z" fill="#91D2E1"/>
<path d="M43.862 36.6185V34.2031H45.0286V38.4095H43.9086V37.6454H43.8647C43.7698 37.8919 43.6119 38.09 43.391 38.2397C43.1719 38.3894 42.9044 38.4643 42.5886 38.4643C42.3074 38.4643 42.06 38.4004 41.8464 38.2726C41.6328 38.1448 41.4658 37.9631 41.3453 37.7276C41.2266 37.4921 41.1664 37.21 41.1646 36.8814V34.2031H42.3312V36.6733C42.333 36.9216 42.3996 37.1178 42.5311 37.2621C42.6625 37.4063 42.8387 37.4784 43.0596 37.4784C43.2002 37.4784 43.3316 37.4464 43.454 37.3826C43.5763 37.3168 43.6749 37.2201 43.7497 37.0923C43.8264 36.9645 43.8638 36.8065 43.862 36.6185Z" fill="#91D2E1"/>
<path d="M37.1992 38.4095V37.7139L39.2586 35.1643V35.1342H37.2704V34.2031H40.6635V34.9617L38.7301 37.4483V37.4784H40.7347V38.4095H37.1992Z" fill="#91D2E1"/>
<path d="M32.904 38.4093H31.6333L33.5694 32.8008H35.0975L37.0309 38.4093H35.7603L34.3554 34.0824H34.3116L32.904 38.4093ZM32.8246 36.2048H35.826V37.1304H32.8246V36.2048Z" fill="#91D2E1"/>
<path d="M24.0205 38.4096V34.2032H25.1323V34.9453H25.1816C25.2693 34.6989 25.4153 34.5044 25.6198 34.362C25.8243 34.2196 26.0689 34.1484 26.3537 34.1484C26.6422 34.1484 26.8877 34.2206 27.0904 34.3648C27.293 34.5072 27.4281 34.7007 27.4957 34.9453H27.5395C27.6253 34.7044 27.7805 34.5117 28.0051 34.3675C28.2314 34.2215 28.4989 34.1484 28.8074 34.1484C29.2 34.1484 29.5185 34.2735 29.7632 34.5236C30.0097 34.7719 30.1329 35.1243 30.1329 35.5807V38.4096H28.969V35.8107C28.969 35.577 28.9069 35.4018 28.7828 35.2849C28.6587 35.1681 28.5035 35.1097 28.3173 35.1097C28.1055 35.1097 27.9402 35.1772 27.8216 35.3123C27.7029 35.4456 27.6436 35.6218 27.6436 35.8408V38.4096H26.5126V35.7861C26.5126 35.5798 26.4532 35.4155 26.3346 35.2931C26.2177 35.1708 26.0634 35.1097 25.8717 35.1097C25.7421 35.1097 25.6253 35.1425 25.5212 35.2082C25.419 35.2721 25.3377 35.3625 25.2775 35.4794C25.2172 35.5944 25.1871 35.7295 25.1871 35.8847V38.4096H24.0205Z" fill="#91D2E1"/>
<path d="M21.7928 38.4917C21.3601 38.4917 20.9877 38.4041 20.6755 38.2288C20.3651 38.0517 20.126 37.8016 19.958 37.4785C19.79 37.1535 19.7061 36.7692 19.7061 36.3256C19.7061 35.8929 19.79 35.5131 19.958 35.1863C20.126 34.8595 20.3624 34.6049 20.6673 34.4223C20.974 34.2397 21.3336 34.1484 21.7463 34.1484C22.0238 34.1484 22.2821 34.1932 22.5213 34.2826C22.7622 34.3703 22.9722 34.5026 23.1511 34.6797C23.3319 34.8568 23.4724 35.0795 23.5728 35.3479C23.6733 35.6145 23.7235 35.9267 23.7235 36.2845V36.6049H20.1716V35.8819H22.6253C22.6253 35.714 22.5888 35.5652 22.5158 35.4355C22.4428 35.3059 22.3414 35.2046 22.2118 35.1316C22.084 35.0567 21.9352 35.0193 21.7654 35.0193C21.5883 35.0193 21.4313 35.0604 21.2944 35.1425C21.1593 35.2229 21.0534 35.3315 20.9767 35.4684C20.9001 35.6035 20.8608 35.7541 20.859 35.9203V36.6076C20.859 36.8158 20.8973 36.9956 20.974 37.1471C21.0525 37.2987 21.1629 37.4155 21.3054 37.4977C21.4478 37.5798 21.6166 37.6209 21.812 37.6209C21.9416 37.6209 22.0603 37.6026 22.168 37.5661C22.2757 37.5296 22.3679 37.4748 22.4446 37.4018C22.5213 37.3288 22.5797 37.2393 22.6198 37.1334L23.6988 37.2046C23.6441 37.4639 23.5318 37.6903 23.362 37.8838C23.194 38.0755 22.9768 38.2252 22.7102 38.3329C22.4455 38.4388 22.1397 38.4917 21.7928 38.4917Z" fill="#91D2E1"/>
<path d="M18.3497 34.4138C18.3278 34.1929 18.2338 34.0213 18.0676 33.8989C17.9015 33.7766 17.676 33.7155 17.3912 33.7155C17.1977 33.7155 17.0343 33.7429 16.901 33.7976C16.7678 33.8506 16.6655 33.9245 16.5943 34.0194C16.5249 34.1144 16.4902 34.2221 16.4902 34.3426C16.4866 34.443 16.5076 34.5306 16.5532 34.6055C16.6007 34.6803 16.6655 34.7452 16.7477 34.7999C16.8298 34.8529 16.9248 34.8994 17.0325 34.9396C17.1402 34.9779 17.2552 35.0108 17.3775 35.0382L17.8814 35.1587C18.1261 35.2134 18.3506 35.2865 18.5551 35.3778C18.7596 35.469 18.9367 35.5813 19.0864 35.7146C19.2361 35.8479 19.352 36.0049 19.4342 36.1856C19.5181 36.3664 19.561 36.5736 19.5629 36.8073C19.561 37.1505 19.4734 37.4481 19.3 37.7C19.1284 37.9501 18.8801 38.1446 18.5551 38.2833C18.2319 38.4202 17.8422 38.4887 17.3857 38.4887C16.933 38.4887 16.5386 38.4193 16.2027 38.2806C15.8686 38.1418 15.6075 37.9364 15.4195 37.6644C15.2333 37.3906 15.1356 37.0519 15.1265 36.6484H16.2739C16.2867 36.8365 16.3405 36.9935 16.4355 37.1195C16.5322 37.2436 16.661 37.3376 16.8216 37.4015C16.9841 37.4636 17.1676 37.4946 17.3721 37.4946C17.5729 37.4946 17.7472 37.4654 17.8951 37.407C18.0448 37.3486 18.1607 37.2673 18.2429 37.1633C18.3251 37.0592 18.3661 36.9396 18.3661 36.8045C18.3661 36.6785 18.3287 36.5727 18.2539 36.4869C18.1808 36.401 18.0731 36.328 17.9307 36.2678C17.7901 36.2075 17.6176 36.1528 17.4131 36.1035L16.8024 35.9501C16.3296 35.8351 15.9562 35.6553 15.6824 35.4106C15.4085 35.166 15.2725 34.8364 15.2743 34.422C15.2725 34.0824 15.3629 33.7858 15.5455 33.532C15.7299 33.2782 15.9827 33.0801 16.304 32.9377C16.6253 32.7953 16.9905 32.7241 17.3994 32.7241C17.8157 32.7241 18.179 32.7953 18.4894 32.9377C18.8016 33.0801 19.0444 33.2782 19.2178 33.532C19.3913 33.7858 19.4807 34.0797 19.4862 34.4138H18.3497Z" fill="#91D2E1"/>
<path d="M13.523 7.43714C13.523 7.43714 10.9621 3.75776 11.855 2.09959C12.7479 0.441425 20.9406 -0.0589691 23.8056 4.94498L18.4484 11.4207L13.523 7.43714Z" fill="#DBE4EB"/>
<path d="M27.8963 20.2314H40.8477C41.1519 20.2516 41.4571 20.2091 41.7443 20.1066C42.0315 20.0041 42.2945 19.8437 42.5172 19.6353C42.7398 19.427 42.9174 19.1752 43.0387 18.8954C43.1601 18.6157 43.2227 18.314 43.2227 18.009C43.2227 17.7041 43.1601 17.4024 43.0387 17.1227C42.9174 16.8429 42.7398 16.5911 42.5172 16.3827C42.2945 16.1744 42.0315 16.014 41.7443 15.9115C41.4571 15.8089 41.1519 15.7665 40.8477 15.7867C40.361 15.7533 39.9006 15.5539 39.5434 15.2217C39.1862 14.8895 38.9539 14.4447 38.8853 13.9617C38.4242 11.4341 37.092 9.14796 35.1203 7.50064C33.1485 5.85333 30.6619 4.94899 28.0925 4.94482H23.8048C19.7987 4.94903 15.8663 6.02241 12.4135 8.05413C8.9608 10.0859 6.1129 13.0023 4.16386 16.5024C2.21482 20.0024 1.23527 23.9593 1.32634 27.9644C1.41741 31.9695 2.5758 35.8778 4.68191 39.2856L4.22077 39.4132C3.65769 39.5609 3.12966 39.8192 2.66744 40.1731C2.20523 40.5269 1.81808 40.9693 1.52858 41.4743C1.23908 41.9793 1.05301 42.5369 0.981229 43.1146C0.909444 43.6923 0.953378 44.2785 1.11047 44.839L1.73842 47.184C1.81662 47.4706 2.00473 47.7149 2.26191 47.8637C2.51908 48.0125 2.82457 48.0538 3.11205 47.9787L5.73176 47.2821C6.30864 47.1292 6.84531 46.8525 7.30448 46.4713C7.76366 46.09 8.13432 45.6134 8.39072 45.0745C8.87963 45.4138 9.43712 45.6415 10.0238 45.7415C10.6104 45.8415 11.2118 45.8115 11.7856 45.6534L14.4053 44.9568C14.547 44.9181 14.6798 44.8519 14.7959 44.762C14.9121 44.6721 15.0094 44.5601 15.0823 44.4325C15.1552 44.305 15.2022 44.1643 15.2207 44.0186C15.2393 43.8728 15.2289 43.7249 15.1902 43.5831L14.5623 41.2283C14.4143 40.6695 14.1573 40.1455 13.806 39.6864C13.4548 39.2273 13.0163 38.8421 12.5157 38.5531C12.0151 38.264 11.4623 38.0768 10.8891 38.0021C10.3159 37.9275 9.73359 37.9669 9.17565 38.118L7.74315 38.5105C7.74315 38.1965 7.74315 37.8924 7.74315 37.5293C7.74946 34.0235 8.81789 30.6018 10.8076 27.7153C12.7973 24.8288 15.615 22.6129 18.8892 21.3597L27.8963 20.2314Z" fill="#E7ECF0"/>
<path d="M24.1879 24.7647L23.8641 27.5218C25.931 27.1322 27.8808 26.2731 29.5632 25.0109C31.2456 23.7487 32.6157 22.1169 33.5679 20.2415C33.5679 20.2415 31.6055 16.6701 31.0757 16.9546C30.5459 17.2392 23.7856 17.9358 23.7856 17.9358L24.1879 24.7647Z" fill="#DBE4EB"/>
<path d="M33.2644 10.3034C33.2644 10.6375 33.1651 10.9642 32.9793 11.2419C32.7934 11.5197 32.5292 11.736 32.2203 11.8634C31.9114 11.9909 31.5715 12.0237 31.2439 11.9578C30.9163 11.8919 30.6156 11.7302 30.38 11.4932C30.1444 11.2562 29.9844 10.9545 29.9204 10.6265C29.8564 10.2985 29.8912 9.9589 30.0205 9.65071C30.1497 9.34252 30.3675 9.07963 30.6463 8.89538C30.9251 8.71113 31.2524 8.61381 31.5866 8.61575C32.0325 8.61834 32.4592 8.79729 32.7736 9.11349C33.0879 9.4297 33.2644 9.85747 33.2644 10.3034Z" fill="#544F56"/>
<path d="M23.4322 13.2943C14.4251 13.4611 3.36735 22.0267 8.15544 32.8097L8.34186 32.9569C9.07114 30.3339 10.4052 27.9184 12.237 25.9043C14.0687 23.8902 16.3472 22.3336 18.8894 21.3595L27.8965 20.2311H32.8023L33.0574 19.7798C31.7427 15.1389 27.8278 13.2158 23.4322 13.2943Z" fill="#F7F8FA"/>
<path d="M28.6129 18.5832C27.8044 20.8537 26.4152 22.8728 24.5835 24.4393C22.7519 26.0058 20.5418 27.0652 18.1733 27.5118L18.9975 20.5455C19.1133 19.5343 19.5975 18.6011 20.3576 17.9242C21.1178 17.2473 22.1006 16.8742 23.1184 16.8759H27.3374C27.5506 16.8553 27.7656 16.8899 27.9615 16.9765C28.1574 17.0631 28.3277 17.1988 28.4559 17.3704C28.5841 17.542 28.6659 17.7437 28.6934 17.9562C28.7209 18.1686 28.6932 18.3846 28.6129 18.5832Z" fill="#E7ECF0"/>
<path d="M24.9543 4.94482C27.5237 4.94899 30.0103 5.85333 31.9821 7.50064C33.9538 9.14796 35.286 11.4341 35.7471 13.9617C35.821 14.451 36.0615 14.8998 36.428 15.2323C36.7944 15.5648 37.2644 15.7606 37.7585 15.7867C38.0628 15.7665 38.368 15.8089 38.6552 15.9115C38.9423 16.014 39.2054 16.1744 39.4281 16.3827C39.6507 16.5911 39.8282 16.8429 39.9496 17.1227C40.0709 17.4024 40.1335 17.7041 40.1335 18.009C40.1335 18.314 40.0709 18.6157 39.9496 18.8954C39.8282 19.1752 39.6507 19.427 39.4281 19.6353C39.2054 19.8437 38.9423 20.0041 38.6552 20.1066C38.368 20.2091 38.0628 20.2516 37.7585 20.2314H40.7903C41.0946 20.2516 41.3998 20.2091 41.687 20.1066C41.9741 20.0041 42.2372 19.8437 42.4599 19.6353C42.6825 19.427 42.86 19.1752 42.9814 18.8954C43.1027 18.6157 43.1653 18.314 43.1653 18.009C43.1653 17.7041 43.1027 17.4024 42.9814 17.1227C42.86 16.8429 42.6825 16.5911 42.4599 16.3827C42.2372 16.1744 41.9741 16.014 41.687 15.9115C41.3998 15.8089 41.0946 15.7665 40.7903 15.7867C40.3037 15.7533 39.8432 15.5539 39.486 15.2217C39.1288 14.8895 38.8965 14.4447 38.828 13.9617C38.3669 11.4341 37.0347 9.14796 35.0629 7.50064C33.0912 5.85333 30.6045 4.94899 28.0352 4.94482H24.9543ZM10.5018 37.9709C10.0555 37.9571 9.60954 38.0067 9.17718 38.118L8.7749 38.2358C9.43685 38.4693 10.0329 38.8587 10.5128 39.371C10.9926 39.8833 11.3422 40.5035 11.532 41.1793L12.1599 43.5341C12.1984 43.6765 12.2084 43.825 12.1893 43.9713C12.1701 44.1175 12.1222 44.2586 12.0483 44.3862C11.9745 44.5139 11.8761 44.6257 11.7588 44.7152C11.6416 44.8047 11.5078 44.8701 11.3652 44.9077L9.25567 45.5258C10.0684 45.834 10.9574 45.8786 11.7969 45.6534L14.4166 44.9568C14.559 44.9193 14.6926 44.8538 14.8095 44.7642C14.9263 44.6745 15.0241 44.5625 15.0972 44.4346C15.1703 44.3067 15.2171 44.1656 15.2351 44.0194C15.253 43.8732 15.2416 43.7249 15.2015 43.5831L14.5736 41.2283C14.3328 40.3211 13.8073 39.5151 13.0744 38.9287C12.3414 38.3424 11.4397 38.0066 10.5018 37.9709Z" fill="#DBE4EB"/>
<path d="M0.169033 45.075L0.796979 47.4298C0.912663 47.8801 1.1752 48.279 1.54305 48.5633C1.91091 48.8477 2.36307 49.0012 2.82799 48.9997C3.01013 49.001 3.19162 48.9779 3.36763 48.931L5.98735 48.2246C7.08323 47.9334 8.05026 47.2841 8.73461 46.38C9.78079 46.8218 10.9446 46.9012 12.0411 46.6056L14.6608 45.8992C14.9284 45.8296 15.1792 45.7069 15.3984 45.5383C15.6175 45.3697 15.8005 45.1588 15.9364 44.918C16.0703 44.6783 16.1558 44.4146 16.1877 44.1418C16.2197 43.8691 16.1977 43.5927 16.1228 43.3285L15.4948 40.9737C15.1164 39.6074 14.2126 38.4463 12.9809 37.744C11.7492 37.0418 10.2897 36.8554 8.92103 37.2257L8.69536 37.2846C8.76449 34.3102 9.63974 31.4104 11.2277 28.8944C12.8158 26.3785 15.057 24.3408 17.7123 22.9988L17.2021 27.414C17.1843 27.5625 17.2007 27.713 17.25 27.8542C17.2994 27.9953 17.3803 28.1233 17.4866 28.2284C17.6694 28.4097 17.916 28.5119 18.1734 28.5129H18.2912C19.9508 28.2375 21.5446 27.6553 22.9909 26.7959L22.8928 27.414C22.8738 27.5617 22.8887 27.7118 22.9363 27.8529C22.9839 27.994 23.063 28.1224 23.1676 28.2284C23.2736 28.333 23.402 28.4121 23.5431 28.4597C23.6842 28.5073 23.8342 28.5221 23.9819 28.5031C26.1086 28.1187 28.1231 27.266 29.8795 26.0068C31.6359 24.7477 33.0902 23.1136 34.137 21.2229H40.8285C41.2641 21.247 41.7001 21.182 42.1097 21.0319C42.5194 20.8818 42.8941 20.6498 43.211 20.3499C43.5279 20.0501 43.7803 19.6888 43.9528 19.2881C44.1253 18.8873 44.2143 18.4556 44.2143 18.0194C44.2143 17.5831 44.1253 17.1514 43.9528 16.7507C43.7803 16.35 43.5279 15.9887 43.211 15.6888C42.8941 15.389 42.5194 15.1569 42.1097 15.0068C41.7001 14.8567 41.2641 14.7918 40.8285 14.8159C40.5715 14.7891 40.3305 14.6786 40.1425 14.5012C39.9546 14.3239 39.8302 14.0897 39.7885 13.8347C39.2871 11.0786 37.8335 8.58628 35.6815 6.79293C33.5294 4.99958 30.8158 4.01922 28.0145 4.02305H24.3057C22.2453 1.02068 18.4187 -0.0193515 15.4752 0.000271834C14.6216 0.000271834 11.786 0.176881 10.9717 1.69769C10.1573 3.21849 11.3053 5.77934 12.1294 7.16278C6.78431 10.2131 2.85186 15.2417 1.17982 21.1644C-0.492208 27.0872 0.230095 33.4298 3.19102 38.825C2.02993 39.3416 1.08936 40.2528 0.536155 41.3969C-0.0170451 42.541 -0.14711 43.8441 0.169033 45.075ZM8.27346 30.2202C7.86653 28.5486 7.86248 26.8043 8.26164 25.1309C8.66081 23.4575 9.45177 21.9028 10.5694 20.5949C14.1899 16.0816 20.8128 13.4619 25.9835 14.4921C27.2871 14.7072 28.5117 15.2596 29.5358 16.0944C30.5599 16.9292 31.3479 18.0173 31.8214 19.2507H29.398C29.398 19.1428 29.4863 19.0545 29.5255 18.9466C29.6674 18.6068 29.7228 18.2372 29.6869 17.8708C29.6509 17.5044 29.5247 17.1526 29.3195 16.8469C29.0984 16.5345 28.8036 16.2815 28.4613 16.1103C28.119 15.9392 27.7397 15.8552 27.3571 15.8657H23.1381C21.8798 15.8644 20.6649 16.3253 19.7243 17.1611C18.7836 17.9968 18.1828 19.149 18.0361 20.3987V20.6832C13.68 22.4938 10.1854 25.9076 8.27346 30.2202ZM19.9395 20.6244C20.0309 19.8534 20.402 19.1428 20.9826 18.6273C21.5631 18.1119 22.3127 17.8275 23.0891 17.8281H27.3081C27.3757 17.8218 27.4439 17.8299 27.5082 17.8519C27.5724 17.8739 27.6313 17.9092 27.6809 17.9556C27.7398 18.0341 27.6809 18.1813 27.6809 18.25C27.004 20.1447 25.894 21.8552 24.4392 23.2452C22.9845 24.6351 21.2253 25.6662 19.3018 26.2563L19.9395 20.6244ZM24.9729 26.2563L25.0808 25.2751C26.4276 24.1322 27.5576 22.7563 28.4168 21.2131H31.8214C30.1902 23.6228 27.7841 25.4023 25.0023 26.2563H24.9729ZM12.7083 2.58074C12.8751 2.34526 14.1016 1.82524 16.162 1.91354C18.2335 1.99077 20.2223 2.74564 21.8234 4.0623C19.0753 4.30203 16.3913 5.02618 13.8955 6.20124C13.0419 4.78836 12.414 3.14 12.7083 2.58074ZM2.38647 41.9844C2.84518 41.2028 3.59194 40.6322 4.46654 40.3949L4.91787 40.2771C5.06581 40.2371 5.20233 40.1631 5.31648 40.0608C5.43064 39.9586 5.51927 39.8311 5.57526 39.6884C5.63223 39.5475 5.65569 39.3953 5.64377 39.2437C5.63185 39.0922 5.58489 38.9455 5.50657 38.8152C3.48359 35.5537 2.36889 31.811 2.27782 27.9741C2.18675 24.1373 3.12263 20.3458 4.9886 16.9921C6.85458 13.6383 9.58286 10.8441 12.8911 8.89865C16.1994 6.95316 19.9674 5.92705 23.8053 5.92651H28.0145C30.3506 5.93209 32.611 6.75554 34.4033 8.2539C36.1956 9.75226 37.4066 11.8309 37.8262 14.1291C37.9329 14.8428 38.2854 15.4969 38.8227 15.9787C39.36 16.4605 40.0485 16.7398 40.7697 16.7684C40.9419 16.7531 41.1155 16.7738 41.2793 16.8292C41.4432 16.8846 41.5937 16.9735 41.7213 17.0902C41.8489 17.207 41.9508 17.349 42.0205 17.5073C42.0902 17.6656 42.1262 17.8366 42.1262 18.0096C42.1262 18.1825 42.0902 18.3536 42.0205 18.5118C41.9508 18.6701 41.8489 18.8122 41.7213 18.9289C41.5937 19.0457 41.4432 19.1346 41.2793 19.19C41.1155 19.2454 40.9419 19.2661 40.7697 19.2507H33.9015C33.4 17.5433 32.4283 16.0114 31.0976 14.8299C29.7669 13.6484 28.1307 12.8649 26.376 12.569C20.538 11.4014 13.091 14.3253 9.04858 19.3685C7.42914 21.2508 6.39915 23.568 6.08686 26.0314C5.77458 28.4948 6.19378 30.9956 7.2923 33.2225C6.93433 34.647 6.75309 36.1101 6.75265 37.5789C6.75265 37.9125 6.75265 38.2363 6.75265 38.5601C6.75973 38.7065 6.79954 38.8495 6.86915 38.9786C6.93877 39.1076 7.03642 39.2194 7.15493 39.3058C7.27295 39.3896 7.40804 39.4462 7.55054 39.4717C7.69303 39.4971 7.83938 39.4907 7.97911 39.4529L9.42142 39.0703C9.85502 38.9517 10.3078 38.9202 10.7536 38.9775C11.1995 39.0348 11.6296 39.1799 12.0191 39.4043C12.4086 39.6287 12.7498 39.928 13.023 40.2849C13.2962 40.6419 13.4961 41.0494 13.611 41.484L14.2389 43.8388C14.2436 43.8735 14.2364 43.9088 14.2186 43.9391C14.2009 43.9693 14.1735 43.9927 14.1408 44.0056L11.5211 44.712C11.0831 44.8299 10.6247 44.8515 10.1776 44.7752C9.73041 44.699 9.30508 44.5268 8.93084 44.2705C8.81445 44.1912 8.68235 44.1379 8.54352 44.1142C8.4047 44.0905 8.26239 44.0969 8.12629 44.1331C7.98867 44.1684 7.86037 44.2332 7.75026 44.323C7.64014 44.4128 7.55084 44.5254 7.48853 44.6531C7.29554 45.0641 7.01438 45.4275 6.66505 45.7174C6.31571 46.0074 5.90678 46.2169 5.46733 46.3309L2.86724 47.0374C2.84921 47.0433 2.83015 47.0455 2.81125 47.0437C2.79235 47.0419 2.77402 47.0362 2.75743 47.027C2.74083 47.0178 2.72633 47.0052 2.71483 46.9901C2.70334 46.975 2.69509 46.9577 2.69063 46.9392L2.06268 44.5942C1.94253 44.1593 1.90928 43.7049 1.96484 43.2571C2.02039 42.8093 2.16367 42.3768 2.38647 41.9844Z" fill="black"/>
<path d="M31.586 12.9618C32.1125 12.954 32.6249 12.7907 33.0588 12.4923C33.4927 12.194 33.8286 11.774 34.0243 11.2851C34.22 10.7962 34.2667 10.2604 34.1586 9.74509C34.0504 9.22975 33.7922 8.75793 33.4165 8.38901C33.0408 8.02009 32.5643 7.77056 32.0471 7.67184C31.5298 7.57311 30.995 7.6296 30.5098 7.8342C30.0246 8.0388 29.6107 8.38235 29.3204 8.82162C29.03 9.26089 28.8761 9.77624 28.8779 10.3028C28.8792 10.6558 28.9505 11.005 29.0876 11.3302C29.2248 11.6555 29.4251 11.9503 29.6769 12.1976C29.9288 12.4449 30.2272 12.6397 30.5549 12.7709C30.8826 12.9021 31.233 12.967 31.586 12.9618ZM31.586 9.59637C31.7257 9.59637 31.8623 9.6378 31.9784 9.71542C32.0946 9.79305 32.1852 9.90338 32.2386 10.0325C32.2921 10.1615 32.3061 10.3036 32.2788 10.4406C32.2516 10.5777 32.1843 10.7035 32.0855 10.8023C31.9867 10.9011 31.8608 10.9684 31.7238 10.9957C31.5867 11.0229 31.4447 11.0089 31.3156 10.9555C31.1865 10.902 31.0762 10.8115 30.9986 10.6953C30.921 10.5791 30.8795 10.4425 30.8795 10.3028C30.8782 10.2097 30.8956 10.1172 30.9306 10.0309C30.9656 9.9446 31.0176 9.8662 31.0835 9.80033C31.1494 9.73447 31.2278 9.68248 31.3141 9.64745C31.4004 9.61242 31.4928 9.59505 31.586 9.59637Z" fill="black"/>
</svg>
