<svg width="213" height="45" viewBox="0 0 213 45" fill="none" xmlns="http://www.w3.org/2000/svg">
<rect x="16.3555" width="196" height="45" rx="6.98785" fill="#4BCE76"/>
<path d="M57.7974 17.2869V27H56.2042V17.2869H57.7974ZM59.3581 23.1148C59.3581 22.3414 59.5165 21.6566 59.8333 21.0603C60.1594 20.464 60.5973 20.0028 61.147 19.6767C61.706 19.3413 62.3256 19.1736 63.0058 19.1736C63.5089 19.1736 64.0027 19.2854 64.4872 19.509C64.981 19.7233 65.3723 20.0121 65.6612 20.3755V16.658H67.2684V27H65.6612V25.84C65.4003 26.2127 65.0369 26.5202 64.5711 26.7624C64.1145 27.0047 63.5881 27.1258 62.9918 27.1258C62.321 27.1258 61.706 26.9581 61.147 26.6227C60.5973 26.2779 60.1594 25.8027 59.8333 25.1971C59.5165 24.5822 59.3581 23.8881 59.3581 23.1148ZM65.6612 23.1427C65.6612 22.6116 65.5494 22.1504 65.3257 21.7591C65.1114 21.3678 64.8273 21.0696 64.4732 20.8647C64.1192 20.6597 63.7372 20.5572 63.3272 20.5572C62.9173 20.5572 62.5353 20.6597 62.1812 20.8647C61.8272 21.0603 61.5383 21.3538 61.3147 21.7451C61.1004 22.1271 60.9933 22.5837 60.9933 23.1148C60.9933 23.6458 61.1004 24.1117 61.3147 24.5123C61.5383 24.913 61.8272 25.2204 62.1812 25.4347C62.5446 25.6397 62.9266 25.7422 63.3272 25.7422C63.7372 25.7422 64.1192 25.6397 64.4732 25.4347C64.8273 25.2297 65.1114 24.9316 65.3257 24.5403C65.5494 24.1396 65.6612 23.6738 65.6612 23.1427ZM76.4187 22.961C76.4187 23.2499 76.4001 23.5107 76.3628 23.7437H70.4791C70.5256 24.3586 70.7539 24.8524 71.1639 25.2251C71.5738 25.5978 72.0769 25.7841 72.6732 25.7841C73.5304 25.7841 74.136 25.4254 74.4901 24.708H76.2091C75.9762 25.4161 75.5522 25.9984 74.9373 26.4549C74.3317 26.9022 73.577 27.1258 72.6732 27.1258C71.9372 27.1258 71.2757 26.9627 70.6887 26.6366C70.111 26.3012 69.6545 25.8354 69.3191 25.2391C68.993 24.6334 68.8299 23.9347 68.8299 23.1427C68.8299 22.3507 68.9883 21.6566 69.3051 21.0603C69.6312 20.4547 70.0831 19.9889 70.6607 19.6628C71.2477 19.3367 71.9186 19.1736 72.6732 19.1736C73.4 19.1736 74.0475 19.332 74.6159 19.6488C75.1842 19.9656 75.6268 20.4128 75.9436 20.9904C76.2603 21.5588 76.4187 22.2157 76.4187 22.961ZM74.7556 22.4579C74.7463 21.8709 74.5367 21.4004 74.1267 21.0464C73.7168 20.6923 73.209 20.5153 72.6034 20.5153C72.0537 20.5153 71.5831 20.6923 71.1918 21.0464C70.8005 21.3911 70.5676 21.8616 70.493 22.4579H74.7556ZM78.7972 18.2792C78.5084 18.2792 78.2661 18.1813 78.0705 17.9857C77.8748 17.79 77.777 17.5478 77.777 17.2589C77.777 16.9701 77.8748 16.7279 78.0705 16.5322C78.2661 16.3365 78.5084 16.2387 78.7972 16.2387C79.0767 16.2387 79.3143 16.3365 79.51 16.5322C79.7056 16.7279 79.8035 16.9701 79.8035 17.2589C79.8035 17.5478 79.7056 17.79 79.51 17.9857C79.3143 18.1813 79.0767 18.2792 78.7972 18.2792ZM79.5799 19.2994V27H77.9866V19.2994H79.5799ZM81.1406 23.1148C81.1406 22.3414 81.2989 21.6566 81.6157 21.0603C81.9418 20.464 82.3797 20.0028 82.9294 19.6767C83.4885 19.3413 84.1034 19.1736 84.7742 19.1736C85.3799 19.1736 85.9063 19.2947 86.3535 19.537C86.81 19.7699 87.1734 20.0634 87.4436 20.4174V19.2994H89.0508V27H87.4436V25.854C87.1734 26.2174 86.8054 26.5202 86.3395 26.7624C85.8737 27.0047 85.3426 27.1258 84.7463 27.1258C84.0848 27.1258 83.4792 26.9581 82.9294 26.6227C82.3797 26.2779 81.9418 25.8027 81.6157 25.1971C81.2989 24.5822 81.1406 23.8881 81.1406 23.1148ZM87.4436 23.1427C87.4436 22.6116 87.3318 22.1504 87.1082 21.7591C86.8939 21.3678 86.6097 21.0696 86.2557 20.8647C85.9016 20.6597 85.5196 20.5572 85.1097 20.5572C84.6997 20.5572 84.3177 20.6597 83.9636 20.8647C83.6096 21.0603 83.3208 21.3538 83.0972 21.7451C82.8829 22.1271 82.7757 22.5837 82.7757 23.1148C82.7757 23.6458 82.8829 24.1117 83.0972 24.5123C83.3208 24.913 83.6096 25.2204 83.9636 25.4347C84.327 25.6397 84.709 25.7422 85.1097 25.7422C85.5196 25.7422 85.9016 25.6397 86.2557 25.4347C86.6097 25.2297 86.8939 24.9316 87.1082 24.5403C87.3318 24.1396 87.4436 23.6738 87.4436 23.1427ZM94.2428 23.1148C94.2428 22.3414 94.4012 21.6566 94.718 21.0603C95.0441 20.464 95.482 20.0028 96.0317 19.6767C96.5907 19.3413 97.2103 19.1736 97.8904 19.1736C98.3936 19.1736 98.8874 19.2854 99.3719 19.509C99.8657 19.7233 100.257 20.0121 100.546 20.3755V16.658H102.153V27H100.546V25.84C100.285 26.2127 99.9216 26.5202 99.4557 26.7624C98.9992 27.0047 98.4728 27.1258 97.8765 27.1258C97.2056 27.1258 96.5907 26.9581 96.0317 26.6227C95.482 26.2779 95.0441 25.8027 94.718 25.1971C94.4012 24.5822 94.2428 23.8881 94.2428 23.1148ZM100.546 23.1427C100.546 22.6116 100.434 22.1504 100.21 21.7591C99.9961 21.3678 99.7119 21.0696 99.3579 20.8647C99.0038 20.6597 98.6218 20.5572 98.2119 20.5572C97.8019 20.5572 97.4199 20.6597 97.0659 20.8647C96.7118 21.0603 96.423 21.3538 96.1994 21.7451C95.9851 22.1271 95.8779 22.5837 95.8779 23.1148C95.8779 23.6458 95.9851 24.1117 96.1994 24.5123C96.423 24.913 96.7118 25.2204 97.0659 25.4347C97.4292 25.6397 97.8112 25.7422 98.2119 25.7422C98.6218 25.7422 99.0038 25.6397 99.3579 25.4347C99.7119 25.2297 99.9961 24.9316 100.21 24.5403C100.434 24.1396 100.546 23.6738 100.546 23.1427ZM111.303 22.961C111.303 23.2499 111.285 23.5107 111.247 23.7437H105.364C105.41 24.3586 105.639 24.8524 106.049 25.2251C106.458 25.5978 106.962 25.7841 107.558 25.7841C108.415 25.7841 109.021 25.4254 109.375 24.708H111.094C110.861 25.4161 110.437 25.9984 109.822 26.4549C109.216 26.9022 108.462 27.1258 107.558 27.1258C106.822 27.1258 106.16 26.9627 105.573 26.6366C104.996 26.3012 104.539 25.8354 104.204 25.2391C103.878 24.6334 103.715 23.9347 103.715 23.1427C103.715 22.3507 103.873 21.6566 104.19 21.0603C104.516 20.4547 104.968 19.9889 105.545 19.6628C106.132 19.3367 106.803 19.1736 107.558 19.1736C108.285 19.1736 108.932 19.332 109.501 19.6488C110.069 19.9656 110.511 20.4128 110.828 20.9904C111.145 21.5588 111.303 22.2157 111.303 22.961ZM109.64 22.4579C109.631 21.8709 109.421 21.4004 109.011 21.0464C108.601 20.6923 108.094 20.5153 107.488 20.5153C106.938 20.5153 106.468 20.6923 106.076 21.0464C105.685 21.3911 105.452 21.8616 105.378 22.4579H109.64ZM123.294 20.1799C123.294 20.6737 123.177 21.1395 122.945 21.5774C122.712 22.0153 122.339 22.374 121.826 22.6536C121.314 22.9238 120.657 23.0589 119.856 23.0589H118.095V27H116.502V17.2869H119.856C120.601 17.2869 121.23 17.4173 121.743 17.6782C122.264 17.9298 122.651 18.2745 122.903 18.7124C123.163 19.1503 123.294 19.6395 123.294 20.1799ZM119.856 21.7591C120.461 21.7591 120.913 21.624 121.212 21.3538C121.51 21.0743 121.659 20.683 121.659 20.1799C121.659 19.1177 121.058 18.5866 119.856 18.5866H118.095V21.7591H119.856ZM126.407 20.4174C126.64 20.0261 126.947 19.7233 127.329 19.509C127.72 19.2854 128.182 19.1736 128.713 19.1736V20.8227H128.307C127.683 20.8227 127.208 20.9811 126.882 21.2979C126.565 21.6147 126.407 22.1644 126.407 22.947V27H124.813V19.2994H126.407V20.4174ZM133.517 27.1258C132.791 27.1258 132.134 26.9627 131.547 26.6366C130.96 26.3012 130.499 25.8354 130.163 25.2391C129.828 24.6334 129.66 23.9347 129.66 23.1427C129.66 22.3601 129.832 21.6659 130.177 21.0603C130.522 20.4547 130.992 19.9889 131.589 19.6628C132.185 19.3367 132.851 19.1736 133.587 19.1736C134.323 19.1736 134.989 19.3367 135.586 19.6628C136.182 19.9889 136.653 20.4547 136.997 21.0603C137.342 21.6659 137.514 22.3601 137.514 23.1427C137.514 23.9253 137.337 24.6195 136.983 25.2251C136.629 25.8307 136.145 26.3012 135.53 26.6366C134.924 26.9627 134.253 27.1258 133.517 27.1258ZM133.517 25.7422C133.927 25.7422 134.309 25.6444 134.663 25.4487C135.027 25.253 135.32 24.9595 135.544 24.5682C135.767 24.1769 135.879 23.7017 135.879 23.1427C135.879 22.5837 135.772 22.1132 135.558 21.7312C135.343 21.3398 135.059 21.0464 134.705 20.8507C134.351 20.655 133.969 20.5572 133.559 20.5572C133.149 20.5572 132.767 20.655 132.413 20.8507C132.069 21.0464 131.794 21.3398 131.589 21.7312C131.384 22.1132 131.281 22.5837 131.281 23.1427C131.281 23.9719 131.491 24.6148 131.91 25.0714C132.339 25.5186 132.874 25.7422 133.517 25.7422ZM139.9 18.2792C139.611 18.2792 139.369 18.1813 139.173 17.9857C138.978 17.79 138.88 17.5478 138.88 17.2589C138.88 16.9701 138.978 16.7279 139.173 16.5322C139.369 16.3365 139.611 16.2387 139.9 16.2387C140.179 16.2387 140.417 16.3365 140.613 16.5322C140.808 16.7279 140.906 16.9701 140.906 17.2589C140.906 17.5478 140.808 17.79 140.613 17.9857C140.417 18.1813 140.179 18.2792 139.9 18.2792ZM140.683 28.5094C140.683 29.2641 140.492 29.8091 140.11 30.1445C139.737 30.4893 139.192 30.6616 138.474 30.6616H137.65V29.32H138.195C138.521 29.32 138.749 29.2547 138.88 29.1243C139.02 29.0032 139.089 28.7982 139.089 28.5094V19.2994H140.683V28.5094ZM149.832 22.961C149.832 23.2499 149.813 23.5107 149.776 23.7437H143.892C143.939 24.3586 144.167 24.8524 144.577 25.2251C144.987 25.5978 145.49 25.7841 146.087 25.7841C146.944 25.7841 147.549 25.4254 147.903 24.708H149.622C149.39 25.4161 148.966 25.9984 148.351 26.4549C147.745 26.9022 146.99 27.1258 146.087 27.1258C145.351 27.1258 144.689 26.9627 144.102 26.6366C143.524 26.3012 143.068 25.8354 142.732 25.2391C142.406 24.6334 142.243 23.9347 142.243 23.1427C142.243 22.3507 142.402 21.6566 142.718 21.0603C143.045 20.4547 143.496 19.9889 144.074 19.6628C144.661 19.3367 145.332 19.1736 146.087 19.1736C146.813 19.1736 147.461 19.332 148.029 19.6488C148.598 19.9656 149.04 20.4128 149.357 20.9904C149.674 21.5588 149.832 22.2157 149.832 22.961ZM148.169 22.4579C148.16 21.8709 147.95 21.4004 147.54 21.0464C147.13 20.6923 146.622 20.5153 146.017 20.5153C145.467 20.5153 144.997 20.6923 144.605 21.0464C144.214 21.3911 143.981 21.8616 143.906 22.4579H148.169ZM150.869 23.1427C150.869 22.3507 151.027 21.6566 151.344 21.0603C151.67 20.4547 152.117 19.9889 152.686 19.6628C153.254 19.3367 153.906 19.1736 154.642 19.1736C155.574 19.1736 156.343 19.3972 156.948 19.8444C157.563 20.2823 157.978 20.9113 158.192 21.7312H156.473C156.333 21.3492 156.11 21.051 155.802 20.8367C155.495 20.6224 155.108 20.5153 154.642 20.5153C153.99 20.5153 153.468 20.7482 153.077 21.2141C152.695 21.6706 152.504 22.3135 152.504 23.1427C152.504 23.9719 152.695 24.6195 153.077 25.0853C153.468 25.5512 153.99 25.7841 154.642 25.7841C155.565 25.7841 156.175 25.3788 156.473 24.5682H158.192C157.969 25.3509 157.549 25.9751 156.934 26.441C156.319 26.8975 155.555 27.1258 154.642 27.1258C153.906 27.1258 153.254 26.9627 152.686 26.6366C152.117 26.3012 151.67 25.8354 151.344 25.2391C151.027 24.6334 150.869 23.9347 150.869 23.1427ZM161.639 20.5991V24.8617C161.639 25.1505 161.704 25.3602 161.834 25.4906C161.974 25.6117 162.207 25.6723 162.533 25.6723H163.511V27H162.254C161.536 27 160.987 26.8323 160.605 26.4969C160.223 26.1615 160.032 25.6164 160.032 24.8617V20.5991H159.123V19.2994H160.032V17.3847H161.639V19.2994H163.511V20.5991H161.639ZM168.32 27.1258C167.593 27.1258 166.937 26.9627 166.35 26.6366C165.763 26.3012 165.301 25.8354 164.966 25.2391C164.631 24.6334 164.463 23.9347 164.463 23.1427C164.463 22.3601 164.635 21.6659 164.98 21.0603C165.325 20.4547 165.795 19.9889 166.391 19.6628C166.988 19.3367 167.654 19.1736 168.39 19.1736C169.126 19.1736 169.792 19.3367 170.389 19.6628C170.985 19.9889 171.455 20.4547 171.8 21.0603C172.145 21.6659 172.317 22.3601 172.317 23.1427C172.317 23.9253 172.14 24.6195 171.786 25.2251C171.432 25.8307 170.948 26.3012 170.333 26.6366C169.727 26.9627 169.056 27.1258 168.32 27.1258ZM168.32 25.7422C168.73 25.7422 169.112 25.6444 169.466 25.4487C169.829 25.253 170.123 24.9595 170.347 24.5682C170.57 24.1769 170.682 23.7017 170.682 23.1427C170.682 22.5837 170.575 22.1132 170.361 21.7312C170.146 21.3398 169.862 21.0464 169.508 20.8507C169.154 20.655 168.772 20.5572 168.362 20.5572C167.952 20.5572 167.57 20.655 167.216 20.8507C166.871 21.0464 166.596 21.3398 166.391 21.7312C166.186 22.1132 166.084 22.5837 166.084 23.1427C166.084 23.9719 166.294 24.6148 166.713 25.0714C167.142 25.5186 167.677 25.7422 168.32 25.7422Z" fill="white"/>
<g filter="url(#filter0_d_135_1139)">
<circle cx="16.3553" cy="22.3553" r="11.3553" fill="white"/>
<circle cx="16.3553" cy="22.3553" r="10.9185" stroke="#E0630F" stroke-width="0.873481"/>
</g>
<path d="M16.3009 26.7758V23.1454ZM16.3009 23.1454C16.6508 23.1457 16.9993 23.1018 17.3382 23.0147ZM16.3009 23.1454C15.951 23.1457 15.6025 23.1018 15.2636 23.0147ZM17.8568 28.1858C16.8287 28.3811 15.7731 28.3811 14.745 28.1858ZM17.3382 29.8337C16.6485 29.9059 15.9533 29.9059 15.2636 29.8337ZM17.8568 26.7758V26.6431C17.8568 25.9633 18.3118 25.3825 18.8996 25.0415C19.8871 24.4697 20.6584 23.5882 21.094 22.5335C21.5297 21.4788 21.6053 20.3099 21.3093 19.2079C21.0132 18.1059 20.3619 17.1322 19.4564 16.4379C18.5509 15.7435 17.4417 15.3672 16.3006 15.3672C15.1595 15.3672 14.0502 15.7435 13.1447 16.4379C12.2392 17.1322 11.5879 18.1059 11.2919 19.2079C10.9958 20.3099 11.0715 21.4788 11.5071 22.5335C11.9427 23.5882 12.7141 24.4697 13.7015 25.0415C14.2893 25.3825 14.745 25.9633 14.745 26.6431V26.7758" fill="white"/>
<path d="M16.3009 26.7758V23.1454M16.3009 23.1454C16.6508 23.1457 16.9993 23.1018 17.3382 23.0147M16.3009 23.1454C15.951 23.1457 15.6025 23.1018 15.2636 23.0147M17.8568 28.1858C16.8287 28.3811 15.7731 28.3811 14.745 28.1858M17.3382 29.8337C16.6485 29.9059 15.9533 29.9059 15.2636 29.8337M17.8568 26.7758V26.6431C17.8568 25.9633 18.3118 25.3825 18.8996 25.0415C19.8871 24.4697 20.6584 23.5882 21.094 22.5335C21.5297 21.4788 21.6053 20.3099 21.3093 19.2079C21.0132 18.1059 20.3619 17.1322 19.4564 16.4379C18.5509 15.7435 17.4417 15.3672 16.3006 15.3672C15.1595 15.3672 14.0502 15.7435 13.1447 16.4379C12.2392 17.1322 11.5879 18.1059 11.2919 19.2079C10.9958 20.3099 11.0715 21.4788 11.5071 22.5335C11.9427 23.5882 12.7141 24.4697 13.7015 25.0415C14.2893 25.3825 14.745 25.9633 14.745 26.6431V26.7758" stroke="#829194" stroke-width="1.31022" stroke-linecap="round" stroke-linejoin="round"/>
<defs>
<filter id="filter0_d_135_1139" x="0.2832" y="9.77713" width="32.144" height="32.144" filterUnits="userSpaceOnUse" color-interpolation-filters="sRGB">
<feFlood flood-opacity="0" result="BackgroundImageFix"/>
<feColorMatrix in="SourceAlpha" type="matrix" values="0 0 0 0 0 0 0 0 0 0 0 0 0 0 0 0 0 0 127 0" result="hardAlpha"/>
<feOffset dy="3.49393"/>
<feGaussianBlur stdDeviation="2.3584"/>
<feComposite in2="hardAlpha" operator="out"/>
<feColorMatrix type="matrix" values="0 0 0 0 0 0 0 0 0 0 0 0 0 0 0 0 0 0 0.25 0"/>
<feBlend mode="normal" in2="BackgroundImageFix" result="effect1_dropShadow_135_1139"/>
<feBlend mode="normal" in="SourceGraphic" in2="effect1_dropShadow_135_1139" result="shape"/>
</filter>
</defs>
</svg>
