<svg width="211" height="45" viewBox="0 0 211 45" fill="none" xmlns="http://www.w3.org/2000/svg">
<rect x="15" width="196" height="45" rx="6.98785" fill="#4A6BFE"/>
<path d="M82.6536 17.2869V27H81.0604V17.2869H82.6536ZM88.6306 19.1736C89.2362 19.1736 89.7766 19.2994 90.2518 19.5509C90.7363 19.8025 91.1136 20.1752 91.3838 20.669C91.654 21.1628 91.7891 21.7591 91.7891 22.4579V27H90.2098V22.6955C90.2098 22.006 90.0375 21.4796 89.6927 21.1162C89.348 20.7435 88.8775 20.5572 88.2812 20.5572C87.6849 20.5572 87.2097 20.7435 86.8557 21.1162C86.5109 21.4796 86.3386 22.006 86.3386 22.6955V27H84.7454V19.2994H86.3386V20.1799C86.5995 19.8631 86.9302 19.6162 87.3309 19.4391C87.7408 19.2621 88.1741 19.1736 88.6306 19.1736ZM97.1616 27.1258C96.4348 27.1258 95.778 26.9627 95.191 26.6366C94.604 26.3012 94.1428 25.8354 93.8074 25.2391C93.472 24.6334 93.3043 23.9347 93.3043 23.1427C93.3043 22.3601 93.4766 21.6659 93.8214 21.0603C94.1661 20.4547 94.6366 19.9889 95.2329 19.6628C95.8292 19.3367 96.4954 19.1736 97.2314 19.1736C97.9675 19.1736 98.6337 19.3367 99.23 19.6628C99.8263 19.9889 100.297 20.4547 100.642 21.0603C100.986 21.6659 101.159 22.3601 101.159 23.1427C101.159 23.9253 100.982 24.6195 100.628 25.2251C100.273 25.8307 99.789 26.3012 99.1741 26.6366C98.5684 26.9627 97.8976 27.1258 97.1616 27.1258ZM97.1616 25.7422C97.5715 25.7422 97.9535 25.6444 98.3076 25.4487C98.6709 25.253 98.9644 24.9595 99.188 24.5682C99.4116 24.1769 99.5235 23.7017 99.5235 23.1427C99.5235 22.5837 99.4163 22.1132 99.202 21.7312C98.9877 21.3398 98.7035 21.0464 98.3495 20.8507C97.9954 20.655 97.6134 20.5572 97.2035 20.5572C96.7935 20.5572 96.4115 20.655 96.0575 20.8507C95.7127 21.0464 95.4379 21.3398 95.2329 21.7312C95.0279 22.1132 94.9254 22.5837 94.9254 23.1427C94.9254 23.9719 95.1351 24.6148 95.5544 25.0714C95.9829 25.5186 96.5187 25.7422 97.1616 25.7422ZM105.71 25.5745L107.891 19.2994H109.582L106.647 27H104.746L101.825 19.2994H103.53L105.71 25.5745ZM110.255 23.1148C110.255 22.3414 110.413 21.6566 110.73 21.0603C111.056 20.464 111.494 20.0028 112.044 19.6767C112.603 19.3413 113.218 19.1736 113.889 19.1736C114.494 19.1736 115.021 19.2947 115.468 19.537C115.924 19.7699 116.288 20.0634 116.558 20.4174V19.2994H118.165V27H116.558V25.854C116.288 26.2174 115.92 26.5202 115.454 26.7624C114.988 27.0047 114.457 27.1258 113.861 27.1258C113.199 27.1258 112.594 26.9581 112.044 26.6227C111.494 26.2779 111.056 25.8027 110.73 25.1971C110.413 24.5822 110.255 23.8881 110.255 23.1148ZM116.558 23.1427C116.558 22.6116 116.446 22.1504 116.223 21.7591C116.008 21.3678 115.724 21.0696 115.37 20.8647C115.016 20.6597 114.634 20.5572 114.224 20.5572C113.814 20.5572 113.432 20.6597 113.078 20.8647C112.724 21.0603 112.435 21.3538 112.212 21.7451C111.997 22.1271 111.89 22.5837 111.89 23.1148C111.89 23.6458 111.997 24.1117 112.212 24.5123C112.435 24.913 112.724 25.2204 113.078 25.4347C113.441 25.6397 113.823 25.7422 114.224 25.7422C114.634 25.7422 115.016 25.6397 115.37 25.4347C115.724 25.2297 116.008 24.9316 116.223 24.5403C116.446 24.1396 116.558 23.6738 116.558 23.1427ZM123.5 25.7841C124.423 25.7841 125.033 25.3788 125.331 24.5682H127.05C126.845 25.2763 126.477 25.8587 125.946 26.3152C125.424 26.7624 124.767 27.0233 123.975 27.0978V27.6708C124.516 27.6708 124.954 27.7966 125.289 28.0482C125.624 28.3091 125.792 28.6724 125.792 29.1383C125.792 29.6041 125.624 29.9722 125.289 30.2424C124.954 30.5219 124.53 30.6616 124.017 30.6616H122.173V29.6554H123.696C123.957 29.6554 124.152 29.6181 124.283 29.5436C124.413 29.469 124.478 29.3339 124.478 29.1383C124.478 28.9426 124.413 28.8075 124.283 28.733C124.152 28.6585 123.957 28.6212 123.696 28.6212H122.927V27.0839C122.294 27.0093 121.735 26.7997 121.25 26.4549C120.766 26.1009 120.388 25.6444 120.118 25.0853C119.857 24.517 119.727 23.8694 119.727 23.1427C119.727 22.3507 119.885 21.6566 120.202 21.0603C120.528 20.4547 120.975 19.9889 121.544 19.6628C122.112 19.3367 122.764 19.1736 123.5 19.1736C124.432 19.1736 125.201 19.3972 125.806 19.8444C126.421 20.2823 126.836 20.9113 127.05 21.7312H125.331C125.191 21.3492 124.968 21.051 124.66 20.8367C124.353 20.6224 123.966 20.5153 123.5 20.5153C122.848 20.5153 122.326 20.7482 121.935 21.2141C121.553 21.6706 121.362 22.3135 121.362 23.1427C121.362 23.9719 121.553 24.6195 121.935 25.0853C122.326 25.5512 122.848 25.7841 123.5 25.7841ZM128.107 23.1148C128.107 22.3414 128.265 21.6566 128.582 21.0603C128.908 20.464 129.346 20.0028 129.896 19.6767C130.455 19.3413 131.07 19.1736 131.74 19.1736C132.346 19.1736 132.872 19.2947 133.32 19.537C133.776 19.7699 134.14 20.0634 134.41 20.4174V19.2994H136.017V27H134.41V25.854C134.14 26.2174 133.772 26.5202 133.306 26.7624C132.84 27.0047 132.309 27.1258 131.712 27.1258C131.051 27.1258 130.445 26.9581 129.896 26.6227C129.346 26.2779 128.908 25.8027 128.582 25.1971C128.265 24.5822 128.107 23.8881 128.107 23.1148ZM134.41 23.1427C134.41 22.6116 134.298 22.1504 134.074 21.7591C133.86 21.3678 133.576 21.0696 133.222 20.8647C132.868 20.6597 132.486 20.5572 132.076 20.5572C131.666 20.5572 131.284 20.6597 130.93 20.8647C130.576 21.0603 130.287 21.3538 130.063 21.7451C129.849 22.1271 129.742 22.5837 129.742 23.1148C129.742 23.6458 129.849 24.1117 130.063 24.5123C130.287 24.913 130.576 25.2204 130.93 25.4347C131.293 25.6397 131.675 25.7422 132.076 25.7422C132.486 25.7422 132.868 25.6397 133.222 25.4347C133.576 25.2297 133.86 24.9316 134.074 24.5403C134.298 24.1396 134.41 23.6738 134.41 23.1427ZM130.049 18.5028C130.124 17.9624 130.301 17.5571 130.58 17.2869C130.86 17.0074 131.209 16.8676 131.629 16.8676C131.806 16.8676 131.959 16.8956 132.09 16.9515C132.22 17.0074 132.379 17.0912 132.565 17.203C132.705 17.2962 132.821 17.3661 132.914 17.4127C133.017 17.4593 133.129 17.4825 133.25 17.4825C133.408 17.4825 133.539 17.436 133.641 17.3428C133.753 17.2403 133.823 17.0912 133.851 16.8956H134.745C134.671 17.436 134.494 17.8459 134.214 18.1254C133.935 18.3956 133.585 18.5307 133.166 18.5307C132.989 18.5307 132.83 18.5028 132.691 18.4469C132.551 18.3816 132.397 18.2931 132.23 18.1813C132.062 18.0788 131.931 18.009 131.838 17.9717C131.754 17.9251 131.657 17.9018 131.545 17.9018C131.386 17.9018 131.251 17.9531 131.139 18.0555C131.037 18.158 130.972 18.3071 130.944 18.5028H130.049ZM141.45 27.1258C140.723 27.1258 140.066 26.9627 139.479 26.6366C138.892 26.3012 138.431 25.8354 138.096 25.2391C137.76 24.6334 137.593 23.9347 137.593 23.1427C137.593 22.3601 137.765 21.6659 138.11 21.0603C138.454 20.4547 138.925 19.9889 139.521 19.6628C140.117 19.3367 140.784 19.1736 141.52 19.1736C142.256 19.1736 142.922 19.3367 143.518 19.6628C144.114 19.9889 144.585 20.4547 144.93 21.0603C145.274 21.6659 145.447 22.3601 145.447 23.1427C145.447 23.9253 145.27 24.6195 144.916 25.2251C144.562 25.8307 144.077 26.3012 143.462 26.6366C142.857 26.9627 142.186 27.1258 141.45 27.1258ZM141.45 25.7422C141.86 25.7422 142.242 25.6444 142.596 25.4487C142.959 25.253 143.253 24.9595 143.476 24.5682C143.7 24.1769 143.812 23.7017 143.812 23.1427C143.812 22.5837 143.705 22.1132 143.49 21.7312C143.276 21.3398 142.992 21.0464 142.638 20.8507C142.284 20.655 141.902 20.5572 141.492 20.5572C141.082 20.5572 140.7 20.655 140.346 20.8507C140.001 21.0464 139.726 21.3398 139.521 21.7312C139.316 22.1132 139.214 22.5837 139.214 23.1427C139.214 23.9719 139.423 24.6148 139.843 25.0714C140.271 25.5186 140.807 25.7422 141.45 25.7422Z" fill="white"/>
<g filter="url(#filter0_d_135_1140)">
<circle cx="16.3553" cy="23.3553" r="11.3553" fill="white"/>
<circle cx="16.3553" cy="23.3553" r="10.9185" stroke="#91D2E1" stroke-width="0.873481"/>
</g>
<path d="M17.4402 18.863C17.4402 18.5981 17.5789 18.3586 17.7392 18.1474C17.904 17.9311 17.9994 17.6744 17.9994 17.399C17.9994 16.626 17.2486 16 16.3219 16C15.3953 16 14.6445 16.6268 14.6445 17.399C14.6445 17.6744 14.7399 17.9311 14.9047 18.1474C15.065 18.3586 15.2037 18.5981 15.2037 18.863C15.204 18.927 15.1914 18.9904 15.1668 19.0494C15.1422 19.1085 15.1059 19.162 15.0603 19.2067C15.0146 19.2515 14.9604 19.2866 14.9008 19.3099C14.8413 19.3333 14.7777 19.3445 14.7138 19.3428C13.6766 19.3129 12.6411 19.2382 11.6102 19.1189C11.7489 20.3225 11.8286 21.544 11.845 22.7803C11.8457 22.8452 11.8335 22.9095 11.8092 22.9696C11.7848 23.0297 11.7488 23.0843 11.7031 23.1304C11.6575 23.1764 11.6032 23.2129 11.5433 23.2377C11.4835 23.2626 11.4193 23.2752 11.3545 23.275C11.0898 23.275 10.8505 23.1363 10.6395 22.9758C10.4258 22.8088 10.1629 22.7172 9.89176 22.7154C9.11939 22.7154 8.4939 23.4668 8.4939 24.3943C8.4939 25.3217 9.12014 26.0731 9.89176 26.0731C10.1669 26.0731 10.4233 25.9776 10.6395 25.8127C10.8505 25.6523 11.0898 25.5135 11.3545 25.5135C11.5856 25.5135 11.7683 25.7075 11.7511 25.9388C11.6584 27.2039 11.4986 28.4632 11.2725 29.7114C12.4042 29.8532 13.5523 29.942 14.7138 29.9755C14.7777 29.9772 14.8413 29.9661 14.9008 29.9427C14.9604 29.9193 15.0146 29.8842 15.0603 29.8394C15.1059 29.7947 15.1422 29.7412 15.1668 29.6822C15.1914 29.6231 15.204 29.5597 15.2037 29.4958C15.2037 29.2309 15.065 28.9914 14.9047 28.7802C14.7378 28.5663 14.6463 28.3032 14.6445 28.0318C14.6445 27.2595 15.396 26.6327 16.3219 26.6327C17.2486 26.6327 17.9994 27.2595 17.9994 28.0318C17.9994 28.3071 17.904 28.5638 17.7392 28.7802C17.5789 28.9914 17.441 29.2309 17.441 29.4958C17.441 29.7442 17.6475 29.9427 17.8958 29.9285C19.2522 29.8487 20.6031 29.6917 21.9417 29.4584C22.1443 28.2931 22.2891 27.1185 22.3756 25.9388C22.3795 25.8843 22.3721 25.8295 22.3539 25.778C22.3357 25.7265 22.307 25.6793 22.2697 25.6393C22.2324 25.5994 22.1873 25.5676 22.1371 25.546C22.087 25.5243 22.0329 25.5133 21.9783 25.5135C21.7136 25.5135 21.4743 25.6523 21.2633 25.8127C21.0471 25.9776 20.7906 26.0731 20.5155 26.0731C19.7439 26.0731 19.1177 25.3217 19.1177 24.3943C19.1177 23.4668 19.7439 22.7154 20.5155 22.7154C20.7914 22.7154 21.0471 22.8109 21.2633 22.9758C21.4743 23.1363 21.7136 23.275 21.979 23.275C22.0438 23.2752 22.108 23.2626 22.1678 23.2377C22.2277 23.2129 22.282 23.1764 22.3277 23.1304C22.3733 23.0843 22.4093 23.0297 22.4337 22.9696C22.4581 22.9095 22.4703 22.8452 22.4696 22.7803C22.4516 21.4431 22.3596 20.1079 22.1937 18.7809C20.7877 19.0361 19.3533 19.2092 17.895 19.295C17.8363 19.2983 17.7776 19.2895 17.7224 19.2692C17.6672 19.2489 17.6168 19.2175 17.5742 19.177C17.5316 19.1364 17.4978 19.0876 17.4747 19.0335C17.4517 18.9794 17.4399 18.9218 17.4402 18.863Z" fill="white" stroke="#829194" stroke-width="1.31022" stroke-linecap="round" stroke-linejoin="round"/>
<defs>
<filter id="filter0_d_135_1140" x="0.2832" y="10.7771" width="32.144" height="32.144" filterUnits="userSpaceOnUse" color-interpolation-filters="sRGB">
<feFlood flood-opacity="0" result="BackgroundImageFix"/>
<feColorMatrix in="SourceAlpha" type="matrix" values="0 0 0 0 0 0 0 0 0 0 0 0 0 0 0 0 0 0 127 0" result="hardAlpha"/>
<feOffset dy="3.49393"/>
<feGaussianBlur stdDeviation="2.3584"/>
<feComposite in2="hardAlpha" operator="out"/>
<feColorMatrix type="matrix" values="0 0 0 0 0 0 0 0 0 0 0 0 0 0 0 0 0 0 0.25 0"/>
<feBlend mode="normal" in2="BackgroundImageFix" result="effect1_dropShadow_135_1140"/>
<feBlend mode="normal" in="SourceGraphic" in2="effect1_dropShadow_135_1140" result="shape"/>
</filter>
</defs>
</svg>
