<svg width="214" height="45" viewBox="0 0 214 45" fill="none" xmlns="http://www.w3.org/2000/svg">
<rect x="16.5566" width="197" height="45" rx="6.98785" fill="#E0630F"/>
<g filter="url(#filter0_d_134_1115)">
<circle cx="16.3553" cy="22.0271" r="11.3553" fill="white"/>
<circle cx="16.3553" cy="22.0271" r="10.9185" stroke="#000304" stroke-width="0.873481"/>
</g>
<path d="M13.3067 21.2287C13.1306 20.9159 12.8543 20.6696 12.5212 20.5286C12.1881 20.3876 11.817 20.3598 11.4662 20.4496C11.1154 20.5394 10.8047 20.7417 10.5829 21.0248C10.3611 21.3079 10.2407 21.6557 10.2407 22.0136C10.2407 22.3715 10.3611 22.7193 10.5829 23.0024C10.8047 23.2854 11.1154 23.4877 11.4662 23.5775C11.817 23.6673 12.1881 23.6396 12.5212 23.4986C12.8543 23.3575 13.1306 23.1113 13.3067 22.7984M13.3067 21.2287C13.4375 21.4614 13.5124 21.7285 13.5124 22.0136C13.5124 22.2986 13.4375 22.5665 13.3067 22.7984M13.3067 21.2287L20.2621 17.4129ZM13.3067 22.7984L20.2621 26.6142ZM20.2621 26.6142C20.1577 26.7998 20.0914 27.0038 20.0668 27.2146C20.0423 27.4255 20.0601 27.639 20.1191 27.8431C20.1782 28.0472 20.2773 28.2378 20.411 28.404C20.5446 28.5702 20.7101 28.7088 20.8979 28.8119C21.0858 28.915 21.2924 28.9805 21.5059 29.0047C21.7194 29.0289 21.9356 29.0114 22.1422 28.9531C22.3489 28.8947 22.5419 28.7968 22.7102 28.6648C22.8785 28.5329 23.0188 28.3695 23.1232 28.1839C23.334 27.8092 23.3854 27.3672 23.2661 26.9551C23.1469 26.5429 22.8668 26.1944 22.4873 25.9863C22.1079 25.7781 21.6603 25.7274 21.243 25.8451C20.8257 25.9629 20.4728 26.2395 20.2621 26.6142ZM20.2621 17.4129C20.364 17.6026 20.5033 17.7703 20.6717 17.9062C20.84 18.0421 21.0341 18.1435 21.2426 18.2044C21.4511 18.2654 21.6699 18.2847 21.886 18.2612C22.1022 18.2377 22.3114 18.1718 22.5015 18.0675C22.6916 17.9633 22.8587 17.8226 22.9931 17.6538C23.1275 17.4849 23.2264 17.2913 23.2842 17.0843C23.3419 16.8773 23.3573 16.6609 23.3294 16.448C23.3015 16.235 23.2309 16.0296 23.1217 15.8439C22.9066 15.478 22.5546 15.21 22.1415 15.0976C21.7283 14.9852 21.2871 15.0374 20.9125 15.2429C20.5379 15.4484 20.2599 15.7909 20.1383 16.1966C20.0167 16.6024 20.0611 17.0391 20.2621 17.4129Z" fill="white"/>
<path d="M13.3067 21.2287C13.1306 20.9159 12.8543 20.6696 12.5212 20.5286C12.1881 20.3876 11.817 20.3598 11.4662 20.4496C11.1154 20.5394 10.8047 20.7417 10.5829 21.0248C10.3611 21.3079 10.2407 21.6557 10.2407 22.0136C10.2407 22.3715 10.3611 22.7193 10.5829 23.0024C10.8047 23.2854 11.1154 23.4877 11.4662 23.5775C11.817 23.6673 12.1881 23.6396 12.5212 23.4986C12.8543 23.3575 13.1306 23.1113 13.3067 22.7984M13.3067 21.2287C13.4375 21.4614 13.5124 21.7285 13.5124 22.0136C13.5124 22.2986 13.4375 22.5665 13.3067 22.7984M13.3067 21.2287L20.2621 17.4129M13.3067 22.7984L20.2621 26.6142M20.2621 17.4129C20.364 17.6026 20.5033 17.7703 20.6717 17.9062C20.84 18.0421 21.0341 18.1435 21.2426 18.2044C21.4511 18.2654 21.6699 18.2847 21.886 18.2612C22.1022 18.2377 22.3114 18.1718 22.5015 18.0675C22.6916 17.9633 22.8587 17.8226 22.9931 17.6538C23.1275 17.4849 23.2264 17.2913 23.2842 17.0843C23.3419 16.8773 23.3573 16.6609 23.3294 16.448C23.3015 16.235 23.2309 16.0296 23.1217 15.8439C22.9066 15.478 22.5546 15.21 22.1415 15.0976C21.7283 14.9852 21.2871 15.0374 20.9125 15.2429C20.5379 15.4484 20.2599 15.7909 20.1383 16.1966C20.0167 16.6024 20.0611 17.0391 20.2621 17.4129ZM20.2621 26.6142C20.1577 26.7998 20.0914 27.0038 20.0668 27.2146C20.0423 27.4255 20.0601 27.639 20.1191 27.8431C20.1782 28.0472 20.2773 28.2378 20.411 28.404C20.5446 28.5702 20.7101 28.7088 20.8979 28.8119C21.0858 28.915 21.2924 28.9805 21.5059 29.0047C21.7194 29.0289 21.9356 29.0114 22.1422 28.9531C22.3489 28.8947 22.5419 28.7968 22.7102 28.6648C22.8785 28.5329 23.0188 28.3695 23.1232 28.1839C23.334 27.8092 23.3854 27.3672 23.2661 26.9551C23.1469 26.5429 22.8668 26.1944 22.4873 25.9863C22.1079 25.7781 21.6603 25.7274 21.243 25.8451C20.8257 25.9629 20.4728 26.2395 20.2621 26.6142Z" stroke="#000304" stroke-width="1.31022" stroke-linecap="round" stroke-linejoin="round"/>
<path d="M41.8053 27.0978C41.1531 27.0978 40.5661 26.986 40.0443 26.7624C39.5226 26.5295 39.1126 26.2034 38.8145 25.7841C38.5163 25.3648 38.3672 24.8757 38.3672 24.3167H40.0723C40.1095 24.7359 40.2726 25.0807 40.5614 25.3509C40.8596 25.6211 41.2742 25.7562 41.8053 25.7562C42.355 25.7562 42.7836 25.6257 43.091 25.3648C43.3985 25.0946 43.5522 24.7499 43.5522 24.3306C43.5522 24.0045 43.4544 23.739 43.2587 23.534C43.0724 23.329 42.8348 23.1707 42.546 23.0589C42.2665 22.947 41.8751 22.8259 41.372 22.6955C40.7384 22.5278 40.2213 22.3601 39.8207 22.1924C39.4294 22.0153 39.094 21.7451 38.8145 21.3818C38.5349 21.0184 38.3952 20.5339 38.3952 19.9283C38.3952 19.3693 38.5349 18.8801 38.8145 18.4608C39.094 18.0416 39.4853 17.7201 39.9884 17.4965C40.4915 17.2729 41.0739 17.1611 41.7354 17.1611C42.6764 17.1611 43.4451 17.3987 44.0414 17.8739C44.647 18.3397 44.9824 18.9826 45.0476 19.8025H43.2867C43.2587 19.4485 43.091 19.1457 42.7836 18.8941C42.4761 18.6425 42.0708 18.5167 41.5677 18.5167C41.1111 18.5167 40.7384 18.6332 40.4496 18.8661C40.1608 19.0991 40.0164 19.4345 40.0164 19.8724C40.0164 20.1705 40.1049 20.4174 40.2819 20.6131C40.4682 20.7994 40.7012 20.9485 40.9807 21.0603C41.2602 21.1721 41.6422 21.2933 42.1267 21.4237C42.7696 21.6007 43.2913 21.7777 43.692 21.9548C44.1019 22.1318 44.4467 22.4067 44.7262 22.7793C45.015 23.1427 45.1594 23.6319 45.1594 24.2468C45.1594 24.7406 45.0243 25.2065 44.7541 25.6444C44.4932 26.0823 44.1066 26.4363 43.5941 26.7065C43.091 26.9674 42.4947 27.0978 41.8053 27.0978ZM54.0971 22.961C54.0971 23.2499 54.0785 23.5107 54.0412 23.7437H48.1574C48.204 24.3586 48.4323 24.8524 48.8422 25.2251C49.2522 25.5978 49.7553 25.7841 50.3516 25.7841C51.2088 25.7841 51.8144 25.4254 52.1685 24.708H53.8875C53.6545 25.4161 53.2306 25.9984 52.6157 26.4549C52.0101 26.9022 51.2554 27.1258 50.3516 27.1258C49.6156 27.1258 48.954 26.9627 48.3671 26.6366C47.7894 26.3012 47.3329 25.8354 46.9974 25.2391C46.6713 24.6334 46.5083 23.9347 46.5083 23.1427C46.5083 22.3507 46.6667 21.6566 46.9835 21.0603C47.3096 20.4547 47.7615 19.9889 48.3391 19.6628C48.9261 19.3367 49.5969 19.1736 50.3516 19.1736C51.0784 19.1736 51.7259 19.332 52.2942 19.6488C52.8626 19.9656 53.3051 20.4128 53.6219 20.9904C53.9387 21.5588 54.0971 22.2157 54.0971 22.961ZM52.434 22.4579C52.4247 21.8709 52.215 21.4004 51.8051 21.0464C51.3951 20.6923 50.8874 20.5153 50.2817 20.5153C49.732 20.5153 49.2615 20.6923 48.8702 21.0464C48.4789 21.3911 48.2459 21.8616 48.1714 22.4579H52.434ZM55.1339 23.1427C55.1339 22.3507 55.2923 21.6566 55.6091 21.0603C55.9352 20.4547 56.3824 19.9889 56.9508 19.6628C57.5191 19.3367 58.1713 19.1736 58.9074 19.1736C59.8391 19.1736 60.6077 19.3972 61.2134 19.8444C61.8283 20.2823 62.2429 20.9113 62.4572 21.7312H60.7382C60.5984 21.3492 60.3748 21.051 60.0673 20.8367C59.7599 20.6224 59.3732 20.5153 58.9074 20.5153C58.2552 20.5153 57.7334 20.7482 57.3421 21.2141C56.9601 21.6706 56.7691 22.3135 56.7691 23.1427C56.7691 23.9719 56.9601 24.6195 57.3421 25.0853C57.7334 25.5512 58.2552 25.7841 58.9074 25.7841C59.8298 25.7841 60.44 25.3788 60.7382 24.5682H62.4572C62.2336 25.3509 61.8143 25.9751 61.1994 26.441C60.5845 26.8975 59.8204 27.1258 58.9074 27.1258C58.1713 27.1258 57.5191 26.9627 56.9508 26.6366C56.3824 26.3012 55.9352 25.8354 55.6091 25.2391C55.2923 24.6334 55.1339 23.9347 55.1339 23.1427ZM65.9037 20.5991V24.8617C65.9037 25.1505 65.969 25.3602 66.0994 25.4906C66.2391 25.6117 66.4721 25.6723 66.7982 25.6723H67.7765V27H66.5187C65.8012 27 65.2515 26.8323 64.8695 26.4969C64.4875 26.1615 64.2965 25.6164 64.2965 24.8617V20.5991H63.3881V19.2994H64.2965V17.3847H65.9037V19.2994H67.7765V20.5991H65.9037ZM72.5851 27.1258C71.8584 27.1258 71.2015 26.9627 70.6145 26.6366C70.0275 26.3012 69.5663 25.8354 69.2309 25.2391C68.8955 24.6334 68.7278 23.9347 68.7278 23.1427C68.7278 22.3601 68.9002 21.6659 69.2449 21.0603C69.5896 20.4547 70.0602 19.9889 70.6565 19.6628C71.2528 19.3367 71.9189 19.1736 72.655 19.1736C73.391 19.1736 74.0572 19.3367 74.6535 19.6628C75.2498 19.9889 75.7203 20.4547 76.0651 21.0603C76.4098 21.6659 76.5822 22.3601 76.5822 23.1427C76.5822 23.9253 76.4051 24.6195 76.0511 25.2251C75.697 25.8307 75.2125 26.3012 74.5976 26.6366C73.992 26.9627 73.3212 27.1258 72.5851 27.1258ZM72.5851 25.7422C72.9951 25.7422 73.3771 25.6444 73.7311 25.4487C74.0945 25.253 74.388 24.9595 74.6116 24.5682C74.8352 24.1769 74.947 23.7017 74.947 23.1427C74.947 22.5837 74.8398 22.1132 74.6256 21.7312C74.4113 21.3398 74.1271 21.0464 73.773 20.8507C73.419 20.655 73.037 20.5572 72.627 20.5572C72.2171 20.5572 71.8351 20.655 71.481 20.8507C71.1363 21.0464 70.8614 21.3398 70.6565 21.7312C70.4515 22.1132 70.349 22.5837 70.349 23.1427C70.349 23.9719 70.5586 24.6148 70.9779 25.0714C71.4065 25.5186 71.9422 25.7422 72.5851 25.7422ZM79.7504 20.4174C79.9833 20.0261 80.2908 19.7233 80.6728 19.509C81.0641 19.2854 81.5253 19.1736 82.0564 19.1736V20.8227H81.6511C81.0268 20.8227 80.5517 20.9811 80.2256 21.2979C79.9088 21.6147 79.7504 22.1644 79.7504 22.947V27H78.1571V19.2994H79.7504V20.4174ZM86.6202 23.1148C86.6202 22.3414 86.7786 21.6566 87.0954 21.0603C87.4215 20.464 87.8594 20.0028 88.4091 19.6767C88.9681 19.3413 89.5877 19.1736 90.2679 19.1736C90.771 19.1736 91.2648 19.2854 91.7493 19.509C92.2431 19.7233 92.6344 20.0121 92.9232 20.3755V16.658H94.5304V27H92.9232V25.84C92.6624 26.2127 92.299 26.5202 91.8331 26.7624C91.3766 27.0047 90.8502 27.1258 90.2539 27.1258C89.583 27.1258 88.9681 26.9581 88.4091 26.6227C87.8594 26.2779 87.4215 25.8027 87.0954 25.1971C86.7786 24.5822 86.6202 23.8881 86.6202 23.1148ZM92.9232 23.1427C92.9232 22.6116 92.8114 22.1504 92.5878 21.7591C92.3735 21.3678 92.0894 21.0696 91.7353 20.8647C91.3813 20.6597 90.9993 20.5572 90.5893 20.5572C90.1793 20.5572 89.7973 20.6597 89.4433 20.8647C89.0892 21.0603 88.8004 21.3538 88.5768 21.7451C88.3625 22.1271 88.2554 22.5837 88.2554 23.1148C88.2554 23.6458 88.3625 24.1117 88.5768 24.5123C88.8004 24.913 89.0892 25.2204 89.4433 25.4347C89.8067 25.6397 90.1887 25.7422 90.5893 25.7422C90.9993 25.7422 91.3813 25.6397 91.7353 25.4347C92.0894 25.2297 92.3735 24.9316 92.5878 24.5403C92.8114 24.1396 92.9232 23.6738 92.9232 23.1427ZM103.681 22.961C103.681 23.2499 103.662 23.5107 103.625 23.7437H97.7411C97.7877 24.3586 98.016 24.8524 98.426 25.2251C98.8359 25.5978 99.339 25.7841 99.9353 25.7841C100.793 25.7841 101.398 25.4254 101.752 24.708H103.471C103.238 25.4161 102.814 25.9984 102.199 26.4549C101.594 26.9022 100.839 27.1258 99.9353 27.1258C99.1993 27.1258 98.5378 26.9627 97.9508 26.6366C97.3731 26.3012 96.9166 25.8354 96.5812 25.2391C96.2551 24.6334 96.092 23.9347 96.092 23.1427C96.092 22.3507 96.2504 21.6566 96.5672 21.0603C96.8933 20.4547 97.3452 19.9889 97.9228 19.6628C98.5098 19.3367 99.1806 19.1736 99.9353 19.1736C100.662 19.1736 101.31 19.332 101.878 19.6488C102.446 19.9656 102.889 20.4128 103.206 20.9904C103.522 21.5588 103.681 22.2157 103.681 22.961ZM102.018 22.4579C102.008 21.8709 101.799 21.4004 101.389 21.0464C100.979 20.6923 100.471 20.5153 99.8655 20.5153C99.3157 20.5153 98.8452 20.6923 98.4539 21.0464C98.0626 21.3911 97.8297 21.8616 97.7551 22.4579H102.018ZM114.735 25.0155H110.668L109.969 27H108.306L111.786 17.2729H113.631L117.111 27H115.434L114.735 25.0155ZM114.288 23.7157L112.708 19.2016L111.115 23.7157H114.288ZM118.093 23.1427C118.093 22.3507 118.251 21.6566 118.568 21.0603C118.894 20.4547 119.341 19.9889 119.91 19.6628C120.478 19.3367 121.13 19.1736 121.866 19.1736C122.798 19.1736 123.567 19.3972 124.172 19.8444C124.787 20.2823 125.202 20.9113 125.416 21.7312H123.697C123.557 21.3492 123.334 21.051 123.026 20.8367C122.719 20.6224 122.332 20.5153 121.866 20.5153C121.214 20.5153 120.692 20.7482 120.301 21.2141C119.919 21.6706 119.728 22.3135 119.728 23.1427C119.728 23.9719 119.919 24.6195 120.301 25.0853C120.692 25.5512 121.214 25.7841 121.866 25.7841C122.789 25.7841 123.399 25.3788 123.697 24.5682H125.416C125.192 25.3509 124.773 25.9751 124.158 26.441C123.543 26.8975 122.779 27.1258 121.866 27.1258C121.13 27.1258 120.478 26.9627 119.91 26.6366C119.341 26.3012 118.894 25.8354 118.568 25.2391C118.251 24.6334 118.093 23.9347 118.093 23.1427ZM128.863 20.5991V24.8617C128.863 25.1505 128.928 25.3602 129.058 25.4906C129.198 25.6117 129.431 25.6723 129.757 25.6723H130.735V27H129.478C128.76 27 128.21 26.8323 127.828 26.4969C127.446 26.1615 127.255 25.6164 127.255 24.8617V20.5991H126.347V19.2994H127.255V17.3847H128.863V19.2994H130.735V20.5991H128.863ZM133.014 18.2792C132.726 18.2792 132.483 18.1813 132.288 17.9857C132.092 17.79 131.994 17.5478 131.994 17.2589C131.994 16.9701 132.092 16.7279 132.288 16.5322C132.483 16.3365 132.726 16.2387 133.014 16.2387C133.294 16.2387 133.532 16.3365 133.727 16.5322C133.923 16.7279 134.021 16.9701 134.021 17.2589C134.021 17.5478 133.923 17.79 133.727 17.9857C133.532 18.1813 133.294 18.2792 133.014 18.2792ZM133.797 19.2994V27H132.204V19.2994H133.797ZM138.866 25.5745L141.046 19.2994H142.737L139.802 27H137.901L134.98 19.2994H136.685L138.866 25.5745ZM144.752 18.2792C144.463 18.2792 144.221 18.1813 144.025 17.9857C143.829 17.79 143.732 17.5478 143.732 17.2589C143.732 16.9701 143.829 16.7279 144.025 16.5322C144.221 16.3365 144.463 16.2387 144.752 16.2387C145.031 16.2387 145.269 16.3365 145.465 16.5322C145.66 16.7279 145.758 16.9701 145.758 17.2589C145.758 17.5478 145.66 17.79 145.465 17.9857C145.269 18.1813 145.031 18.2792 144.752 18.2792ZM145.534 19.2994V27H143.941V19.2994H145.534ZM147.095 23.1148C147.095 22.3414 147.254 21.6566 147.57 21.0603C147.896 20.464 148.334 20.0028 148.884 19.6767C149.443 19.3413 150.063 19.1736 150.743 19.1736C151.246 19.1736 151.74 19.2854 152.224 19.509C152.718 19.7233 153.109 20.0121 153.398 20.3755V16.658H155.005V27H153.398V25.84C153.137 26.2127 152.774 26.5202 152.308 26.7624C151.852 27.0047 151.325 27.1258 150.729 27.1258C150.058 27.1258 149.443 26.9581 148.884 26.6227C148.334 26.2779 147.896 25.8027 147.57 25.1971C147.254 24.5822 147.095 23.8881 147.095 23.1148ZM153.398 23.1427C153.398 22.6116 153.286 22.1504 153.063 21.7591C152.848 21.3678 152.564 21.0696 152.21 20.8647C151.856 20.6597 151.474 20.5572 151.064 20.5572C150.654 20.5572 150.272 20.6597 149.918 20.8647C149.564 21.0603 149.275 21.3538 149.052 21.7451C148.837 22.1271 148.73 22.5837 148.73 23.1148C148.73 23.6458 148.837 24.1117 149.052 24.5123C149.275 24.913 149.564 25.2204 149.918 25.4347C150.282 25.6397 150.664 25.7422 151.064 25.7422C151.474 25.7422 151.856 25.6397 152.21 25.4347C152.564 25.2297 152.848 24.9316 153.063 24.5403C153.286 24.1396 153.398 23.6738 153.398 23.1427ZM156.567 23.1148C156.567 22.3414 156.725 21.6566 157.042 21.0603C157.368 20.464 157.806 20.0028 158.356 19.6767C158.915 19.3413 159.53 19.1736 160.201 19.1736C160.806 19.1736 161.333 19.2947 161.78 19.537C162.236 19.7699 162.6 20.0634 162.87 20.4174V19.2994H164.477V27H162.87V25.854C162.6 26.2174 162.232 26.5202 161.766 26.7624C161.3 27.0047 160.769 27.1258 160.173 27.1258C159.511 27.1258 158.906 26.9581 158.356 26.6227C157.806 26.2779 157.368 25.8027 157.042 25.1971C156.725 24.5822 156.567 23.8881 156.567 23.1148ZM162.87 23.1427C162.87 22.6116 162.758 22.1504 162.535 21.7591C162.32 21.3678 162.036 21.0696 161.682 20.8647C161.328 20.6597 160.946 20.5572 160.536 20.5572C160.126 20.5572 159.744 20.6597 159.39 20.8647C159.036 21.0603 158.747 21.3538 158.524 21.7451C158.309 22.1271 158.202 22.5837 158.202 23.1148C158.202 23.6458 158.309 24.1117 158.524 24.5123C158.747 24.913 159.036 25.2204 159.39 25.4347C159.753 25.6397 160.135 25.7422 160.536 25.7422C160.946 25.7422 161.328 25.6397 161.682 25.4347C162.036 25.2297 162.32 24.9316 162.535 24.5403C162.758 24.1396 162.87 23.6738 162.87 23.1427ZM166.039 23.1148C166.039 22.3414 166.197 21.6566 166.514 21.0603C166.84 20.464 167.278 20.0028 167.828 19.6767C168.387 19.3413 169.006 19.1736 169.686 19.1736C170.19 19.1736 170.683 19.2854 171.168 19.509C171.662 19.7233 172.053 20.0121 172.342 20.3755V16.658H173.949V27H172.342V25.84C172.081 26.2127 171.718 26.5202 171.252 26.7624C170.795 27.0047 170.269 27.1258 169.672 27.1258C169.002 27.1258 168.387 26.9581 167.828 26.6227C167.278 26.2779 166.84 25.8027 166.514 25.1971C166.197 24.5822 166.039 23.8881 166.039 23.1148ZM172.342 23.1427C172.342 22.6116 172.23 22.1504 172.006 21.7591C171.792 21.3678 171.508 21.0696 171.154 20.8647C170.8 20.6597 170.418 20.5572 170.008 20.5572C169.598 20.5572 169.216 20.6597 168.862 20.8647C168.508 21.0603 168.219 21.3538 167.995 21.7451C167.781 22.1271 167.674 22.5837 167.674 23.1148C167.674 23.6458 167.781 24.1117 167.995 24.5123C168.219 24.913 168.508 25.2204 168.862 25.4347C169.225 25.6397 169.607 25.7422 170.008 25.7422C170.418 25.7422 170.8 25.6397 171.154 25.4347C171.508 25.2297 171.792 24.9316 172.006 24.5403C172.23 24.1396 172.342 23.6738 172.342 23.1427ZM183.099 22.961C183.099 23.2499 183.081 23.5107 183.043 23.7437H177.16C177.206 24.3586 177.435 24.8524 177.845 25.2251C178.254 25.5978 178.758 25.7841 179.354 25.7841C180.211 25.7841 180.817 25.4254 181.171 24.708H182.89C182.657 25.4161 182.233 25.9984 181.618 26.4549C181.012 26.9022 180.258 27.1258 179.354 27.1258C178.618 27.1258 177.956 26.9627 177.369 26.6366C176.792 26.3012 176.335 25.8354 176 25.2391C175.674 24.6334 175.511 23.9347 175.511 23.1427C175.511 22.3507 175.669 21.6566 175.986 21.0603C176.312 20.4547 176.764 19.9889 177.341 19.6628C177.928 19.3367 178.599 19.1736 179.354 19.1736C180.081 19.1736 180.728 19.332 181.297 19.6488C181.865 19.9656 182.307 20.4128 182.624 20.9904C182.941 21.5588 183.099 22.2157 183.099 22.961ZM181.436 22.4579C181.427 21.8709 181.217 21.4004 180.807 21.0464C180.397 20.6923 179.89 20.5153 179.284 20.5153C178.734 20.5153 178.264 20.6923 177.872 21.0464C177.481 21.3911 177.248 21.8616 177.174 22.4579H181.436ZM187.462 27.1258C186.857 27.1258 186.312 27.0186 185.827 26.8043C185.352 26.5807 184.975 26.2826 184.695 25.9099C184.416 25.5279 184.267 25.104 184.248 24.6381H185.897C185.925 24.9642 186.079 25.2391 186.358 25.4627C186.647 25.677 187.006 25.7841 187.434 25.7841C187.882 25.7841 188.226 25.7003 188.469 25.5326C188.72 25.3555 188.846 25.1319 188.846 24.8617C188.846 24.5729 188.706 24.3586 188.427 24.2188C188.157 24.0791 187.723 23.9253 187.127 23.7576C186.549 23.5992 186.079 23.4455 185.715 23.2964C185.352 23.1474 185.035 22.9191 184.765 22.6116C184.504 22.3042 184.374 21.8989 184.374 21.3957C184.374 20.9858 184.495 20.6131 184.737 20.2777C184.979 19.933 185.324 19.6628 185.771 19.4671C186.228 19.2714 186.75 19.1736 187.337 19.1736C188.212 19.1736 188.916 19.3972 189.447 19.8444C189.987 20.2823 190.276 20.8833 190.313 21.6473H188.72C188.692 21.3026 188.553 21.0277 188.301 20.8227C188.049 20.6178 187.709 20.5153 187.281 20.5153C186.861 20.5153 186.54 20.5945 186.316 20.7529C186.093 20.9113 185.981 21.1209 185.981 21.3818C185.981 21.5867 186.056 21.7591 186.205 21.8989C186.354 22.0386 186.535 22.1504 186.75 22.2343C186.964 22.3088 187.281 22.4067 187.7 22.5278C188.259 22.6768 188.716 22.8306 189.07 22.989C189.433 23.138 189.745 23.3617 190.006 23.6598C190.267 23.958 190.402 24.3539 190.411 24.8477C190.411 25.2856 190.29 25.677 190.048 26.0217C189.806 26.3664 189.461 26.6366 189.014 26.8323C188.576 27.028 188.059 27.1258 187.462 27.1258Z" fill="white"/>
<defs>
<filter id="filter0_d_134_1115" x="0.2832" y="9.449" width="32.144" height="32.144" filterUnits="userSpaceOnUse" color-interpolation-filters="sRGB">
<feFlood flood-opacity="0" result="BackgroundImageFix"/>
<feColorMatrix in="SourceAlpha" type="matrix" values="0 0 0 0 0 0 0 0 0 0 0 0 0 0 0 0 0 0 127 0" result="hardAlpha"/>
<feOffset dy="3.49393"/>
<feGaussianBlur stdDeviation="2.3584"/>
<feComposite in2="hardAlpha" operator="out"/>
<feColorMatrix type="matrix" values="0 0 0 0 0 0 0 0 0 0 0 0 0 0 0 0 0 0 0.25 0"/>
<feBlend mode="normal" in2="BackgroundImageFix" result="effect1_dropShadow_134_1115"/>
<feBlend mode="normal" in="SourceGraphic" in2="effect1_dropShadow_134_1115" result="shape"/>
</filter>
</defs>
</svg>
