<svg width="209" height="45" viewBox="0 0 209 45" fill="none" xmlns="http://www.w3.org/2000/svg">
<rect x="12" width="197" height="45" rx="6.98785" fill="#023D54"/>
<path d="M69.97 22.1799C69.97 22.6737 69.8535 23.1395 69.6206 23.5774C69.3877 24.0153 69.015 24.374 68.5026 24.6536C67.9901 24.9238 67.3333 25.0589 66.532 25.0589H64.771V29H63.1778V19.2869H66.532C67.2774 19.2869 67.9063 19.4173 68.4187 19.6782C68.9405 19.9298 69.3271 20.2745 69.5787 20.7124C69.8396 21.1503 69.97 21.6395 69.97 22.1799ZM66.532 23.7591C67.1376 23.7591 67.5895 23.624 67.8876 23.3538C68.1858 23.0743 68.3349 22.683 68.3349 22.1799C68.3349 21.1177 67.7339 20.5866 66.532 20.5866H64.771V23.7591H66.532ZM72.3001 20.2792C72.0113 20.2792 71.7691 20.1813 71.5734 19.9857C71.3777 19.79 71.2799 19.5478 71.2799 19.2589C71.2799 18.9701 71.3777 18.7279 71.5734 18.5322C71.7691 18.3365 72.0113 18.2387 72.3001 18.2387C72.5796 18.2387 72.8172 18.3365 73.0129 18.5322C73.2085 18.7279 73.3064 18.9701 73.3064 19.2589C73.3064 19.5478 73.2085 19.79 73.0129 19.9857C72.8172 20.1813 72.5796 20.2792 72.3001 20.2792ZM73.0828 21.2994V29H71.4895V21.2994H73.0828ZM77.9697 29.1258C77.3641 29.1258 76.819 29.0186 76.3345 28.8043C75.8593 28.5807 75.482 28.2826 75.2025 27.9099C74.923 27.5279 74.7739 27.104 74.7553 26.6381H76.4044C76.4324 26.9642 76.5861 27.2391 76.8656 27.4627C77.1544 27.677 77.5131 27.7841 77.9417 27.7841C78.3889 27.7841 78.7337 27.7003 78.9759 27.5326C79.2275 27.3555 79.3533 27.1319 79.3533 26.8617C79.3533 26.5729 79.2135 26.3586 78.934 26.2188C78.6638 26.0791 78.2306 25.9253 77.6343 25.7576C77.0566 25.5992 76.5861 25.4455 76.2227 25.2964C75.8593 25.1474 75.5426 24.9191 75.2724 24.6116C75.0115 24.3042 74.881 23.8989 74.881 23.3957C74.881 22.9858 75.0022 22.6131 75.2444 22.2777C75.4867 21.933 75.8314 21.6628 76.2786 21.4671C76.7352 21.2714 77.2569 21.1736 77.8439 21.1736C78.7197 21.1736 79.4232 21.3972 79.9542 21.8444C80.4946 22.2823 80.7835 22.8833 80.8207 23.6473H79.2275C79.1995 23.3026 79.0598 23.0277 78.8082 22.8227C78.5567 22.6178 78.2166 22.5153 77.788 22.5153C77.3687 22.5153 77.0473 22.5945 76.8237 22.7529C76.6001 22.9113 76.4883 23.1209 76.4883 23.3818C76.4883 23.5867 76.5628 23.7591 76.7119 23.8989C76.8609 24.0386 77.0426 24.1504 77.2569 24.2343C77.4712 24.3088 77.788 24.4067 78.2073 24.5278C78.7663 24.6768 79.2228 24.8306 79.5769 24.989C79.9403 25.138 80.2524 25.3617 80.5133 25.6598C80.7741 25.958 80.9092 26.3539 80.9186 26.8477C80.9186 27.2856 80.7974 27.677 80.5552 28.0217C80.3129 28.3664 79.9682 28.6366 79.521 28.8323C79.0831 29.028 78.566 29.1258 77.9697 29.1258ZM82.109 25.1427C82.109 24.3507 82.2674 23.6566 82.5842 23.0603C82.9103 22.4547 83.3575 21.9889 83.9258 21.6628C84.4942 21.3367 85.1464 21.1736 85.8824 21.1736C86.8142 21.1736 87.5828 21.3972 88.1884 21.8444C88.8034 22.2823 89.218 22.9113 89.4323 23.7312H87.7133C87.5735 23.3492 87.3499 23.051 87.0424 22.8367C86.735 22.6224 86.3483 22.5153 85.8824 22.5153C85.2302 22.5153 84.7085 22.7482 84.3172 23.2141C83.9352 23.6706 83.7442 24.3135 83.7442 25.1427C83.7442 25.9719 83.9352 26.6195 84.3172 27.0853C84.7085 27.5512 85.2302 27.7841 85.8824 27.7841C86.8048 27.7841 87.4151 27.3788 87.7133 26.5682H89.4323C89.2087 27.3509 88.7894 27.9751 88.1745 28.441C87.5595 28.8975 86.7955 29.1258 85.8824 29.1258C85.1464 29.1258 84.4942 28.9627 83.9258 28.6366C83.3575 28.3012 82.9103 27.8354 82.5842 27.2391C82.2674 26.6334 82.109 25.9347 82.109 25.1427ZM91.8306 20.2792C91.5418 20.2792 91.2996 20.1813 91.1039 19.9857C90.9082 19.79 90.8104 19.5478 90.8104 19.2589C90.8104 18.9701 90.9082 18.7279 91.1039 18.5322C91.2996 18.3365 91.5418 18.2387 91.8306 18.2387C92.1101 18.2387 92.3477 18.3365 92.5434 18.5322C92.739 18.7279 92.8369 18.9701 92.8369 19.2589C92.8369 19.5478 92.739 19.79 92.5434 19.9857C92.3477 20.1813 92.1101 20.2792 91.8306 20.2792ZM92.6133 21.2994V29H91.02V21.2994H92.6133ZM94.174 25.1427C94.174 24.3507 94.3324 23.6566 94.6491 23.0603C94.9752 22.4547 95.4225 21.9889 95.9908 21.6628C96.5591 21.3367 97.2113 21.1736 97.9474 21.1736C98.8791 21.1736 99.6478 21.3972 100.253 21.8444C100.868 22.2823 101.283 22.9113 101.497 23.7312H99.7782C99.6385 23.3492 99.4148 23.051 99.1074 22.8367C98.7999 22.6224 98.4133 22.5153 97.9474 22.5153C97.2952 22.5153 96.7734 22.7482 96.3821 23.2141C96.0001 23.6706 95.8091 24.3135 95.8091 25.1427C95.8091 25.9719 96.0001 26.6195 96.3821 27.0853C96.7734 27.5512 97.2952 27.7841 97.9474 27.7841C98.8698 27.7841 99.4801 27.3788 99.7782 26.5682H101.497C101.274 27.3509 100.854 27.9751 100.239 28.441C99.6245 28.8975 98.8605 29.1258 97.9474 29.1258C97.2113 29.1258 96.5591 28.9627 95.9908 28.6366C95.4225 28.3012 94.9752 27.8354 94.6491 27.2391C94.3324 26.6334 94.174 25.9347 94.174 25.1427ZM110.059 21.2994V29H108.466V28.0916C108.214 28.4084 107.883 28.6599 107.473 28.8463C107.073 29.0233 106.644 29.1118 106.188 29.1118C105.582 29.1118 105.037 28.986 104.552 28.7345C104.077 28.4829 103.7 28.1102 103.42 27.6164C103.15 27.1226 103.015 26.5263 103.015 25.8275V21.2994H104.594V25.5899C104.594 26.2794 104.767 26.8105 105.111 27.1832C105.456 27.5465 105.927 27.7282 106.523 27.7282C107.119 27.7282 107.59 27.5465 107.935 27.1832C108.289 26.8105 108.466 26.2794 108.466 25.5899V21.2994H110.059ZM113.754 18.658V29H112.161V18.658H113.754ZM117.705 22.5991V26.8617C117.705 27.1505 117.77 27.3602 117.9 27.4906C118.04 27.6117 118.273 27.6723 118.599 27.6723H119.578V29H118.32C117.602 29 117.053 28.8323 116.671 28.4969C116.289 28.1615 116.098 27.6164 116.098 26.8617V22.5991H115.189V21.2994H116.098V19.3847H117.705V21.2994H119.578V22.5991H117.705ZM128.02 21.2994V29H126.427V28.0916C126.175 28.4084 125.844 28.6599 125.434 28.8463C125.034 29.0233 124.605 29.1118 124.149 29.1118C123.543 29.1118 122.998 28.986 122.513 28.7345C122.038 28.4829 121.661 28.1102 121.381 27.6164C121.111 27.1226 120.976 26.5263 120.976 25.8275V21.2994H122.555V25.5899C122.555 26.2794 122.728 26.8105 123.072 27.1832C123.417 27.5465 123.888 27.7282 124.484 27.7282C125.08 27.7282 125.551 27.5465 125.896 27.1832C126.25 26.8105 126.427 26.2794 126.427 25.5899V21.2994H128.02ZM131.715 22.4174C131.948 22.0261 132.256 21.7233 132.638 21.509C133.029 21.2854 133.49 21.1736 134.021 21.1736V22.8227H133.616C132.992 22.8227 132.516 22.9811 132.19 23.2979C131.874 23.6147 131.715 24.1644 131.715 24.947V29H130.122V21.2994H131.715V22.4174ZM134.955 25.1148C134.955 24.3414 135.113 23.6566 135.43 23.0603C135.756 22.464 136.194 22.0028 136.744 21.6767C137.303 21.3413 137.917 21.1736 138.588 21.1736C139.194 21.1736 139.72 21.2947 140.168 21.537C140.624 21.7699 140.987 22.0634 141.258 22.4174V21.2994H142.865V29H141.258V27.854C140.987 28.2174 140.619 28.5202 140.154 28.7624C139.688 29.0047 139.157 29.1258 138.56 29.1258C137.899 29.1258 137.293 28.9581 136.744 28.6227C136.194 28.2779 135.756 27.8027 135.43 27.1971C135.113 26.5822 134.955 25.8881 134.955 25.1148ZM141.258 25.1427C141.258 24.6116 141.146 24.1504 140.922 23.7591C140.708 23.3678 140.424 23.0696 140.07 22.8647C139.716 22.6597 139.334 22.5572 138.924 22.5572C138.514 22.5572 138.132 22.6597 137.778 22.8647C137.424 23.0603 137.135 23.3538 136.911 23.7451C136.697 24.1271 136.59 24.5837 136.59 25.1148C136.59 25.6458 136.697 26.1117 136.911 26.5123C137.135 26.913 137.424 27.2204 137.778 27.4347C138.141 27.6397 138.523 27.7422 138.924 27.7422C139.334 27.7422 139.716 27.6397 140.07 27.4347C140.424 27.2297 140.708 26.9316 140.922 26.5403C141.146 26.1396 141.258 25.6738 141.258 25.1427Z" fill="white"/>
<g clip-path="url(#clip0_135_1132)">
<rect y="11" width="25" height="25" rx="12.5" fill="white"/>
<path d="M18.5211 13.6991C19.2875 14.1711 19.996 14.7312 20.6321 15.3679C21.2838 16.0196 21.8384 16.7275 22.3009 17.4789M18.5211 13.6991L14.1152 18.9867M18.5211 13.6991C16.7093 12.588 14.6254 12 12.5 12C10.3746 12 8.29072 12.588 6.47888 13.6991M22.3009 17.4789L17.0133 21.8848M22.3009 17.4789C23.412 19.2907 24 21.3746 24 23.5C24 25.6254 23.412 27.7093 22.3009 29.5211M14.1152 18.9867C14.7825 19.2253 15.3884 19.6094 15.8888 20.1112C16.3906 20.6116 16.7748 21.2175 17.0133 21.8848M14.1152 18.9867C13.0706 18.6144 11.9294 18.6144 10.8848 18.9867M6.47888 13.6991L10.8848 18.9867M6.47888 13.6991C5.7125 14.1711 5.00402 14.7311 4.36791 15.3679C3.73115 16.004 3.17106 16.7125 2.69906 17.4789M17.0133 21.8848C17.3856 22.9294 17.3856 24.0706 17.0133 25.1152M22.3009 29.5211L17.0133 25.1152M22.3009 29.5211C21.8289 30.2875 21.2688 30.996 20.6321 31.6321C19.9804 32.2838 19.2725 32.8384 18.5211 33.3009M17.0133 25.1152C16.782 25.7618 16.4063 26.37 15.8888 26.8888C15.3884 27.3906 14.7825 27.7748 14.1152 28.0133M10.8848 18.9867C10.2175 19.2252 9.61162 19.6094 9.1112 20.1112C8.59368 20.63 8.218 21.2382 7.98671 21.8848M14.1152 28.0133L18.5211 33.3009M14.1152 28.0133C13.0706 28.3856 11.9294 28.3856 10.8848 28.0133M18.5211 33.3009C16.7093 34.412 14.6254 35 12.5 35C10.3746 35 8.29072 34.412 6.47888 33.3009M6.47888 33.3009L10.8848 28.0133M6.47888 33.3009C5.7125 32.8289 5.00402 32.2689 4.36791 31.6321C3.73117 30.996 3.17108 30.2875 2.69906 29.5211M10.8848 28.0133C10.2175 27.7748 9.61162 27.3906 9.1112 26.8888C8.6094 26.3884 8.22529 25.7825 7.98671 25.1152M7.98671 25.1152L2.69906 29.5211M7.98671 25.1152C7.61441 24.0706 7.61441 22.9294 7.98671 21.8848M2.69906 29.5211C1.58805 27.7093 1 25.6254 1 23.5C1 21.3746 1.58805 19.2907 2.69906 17.4789M2.69906 17.4789L7.98671 21.8848" stroke="#202223" stroke-width="1.31022" stroke-linecap="round" stroke-linejoin="round"/>
</g>
<defs>
<clipPath id="clip0_135_1132">
<rect y="11" width="25" height="25" rx="12.5" fill="white"/>
</clipPath>
</defs>
</svg>
